<mxfile host="app.diagrams.net" agent="Mozilla/5.0 (Windows NT 10.0; Win64; x64) AppleWebKit/537.36 (KHTML, like Gecko) Chrome/138.0.0.0 Safari/537.36" version="27.2.0" pages="2">
  <diagram name="Singly" id="jTiGhYKuX6iL9PoYHNnp">
    <mxGraphModel dx="1281" dy="527" grid="1" gridSize="10" guides="1" tooltips="1" connect="1" arrows="1" fold="1" page="1" pageScale="1" pageWidth="850" pageHeight="1100" math="0" shadow="0">
      <root>
        <mxCell id="0" />
        <mxCell id="1" parent="0" />
        <mxCell id="yDBzF0w7hM6A0DgJ1MUk-19" value="" style="edgeStyle=orthogonalEdgeStyle;rounded=0;orthogonalLoop=1;jettySize=auto;html=1;entryX=0;entryY=0.5;entryDx=0;entryDy=0;" parent="1" source="yDBzF0w7hM6A0DgJ1MUk-20" target="yDBzF0w7hM6A0DgJ1MUk-22" edge="1">
          <mxGeometry relative="1" as="geometry" />
        </mxCell>
        <mxCell id="yDBzF0w7hM6A0DgJ1MUk-20" value="1" style="ellipse;whiteSpace=wrap;html=1;aspect=fixed;" parent="1" vertex="1">
          <mxGeometry x="190" y="290" width="80" height="80" as="geometry" />
        </mxCell>
        <mxCell id="yDBzF0w7hM6A0DgJ1MUk-21" style="edgeStyle=orthogonalEdgeStyle;rounded=0;orthogonalLoop=1;jettySize=auto;html=1;entryX=0;entryY=0.5;entryDx=0;entryDy=0;" parent="1" source="yDBzF0w7hM6A0DgJ1MUk-22" target="yDBzF0w7hM6A0DgJ1MUk-24" edge="1">
          <mxGeometry relative="1" as="geometry" />
        </mxCell>
        <mxCell id="yDBzF0w7hM6A0DgJ1MUk-22" value="2" style="ellipse;whiteSpace=wrap;html=1;aspect=fixed;" parent="1" vertex="1">
          <mxGeometry x="310" y="290" width="80" height="80" as="geometry" />
        </mxCell>
        <mxCell id="yDBzF0w7hM6A0DgJ1MUk-23" style="edgeStyle=orthogonalEdgeStyle;rounded=0;orthogonalLoop=1;jettySize=auto;html=1;entryX=0;entryY=0.5;entryDx=0;entryDy=0;" parent="1" source="yDBzF0w7hM6A0DgJ1MUk-24" target="yDBzF0w7hM6A0DgJ1MUk-27" edge="1">
          <mxGeometry relative="1" as="geometry" />
        </mxCell>
        <mxCell id="yDBzF0w7hM6A0DgJ1MUk-24" value="3" style="ellipse;whiteSpace=wrap;html=1;aspect=fixed;" parent="1" vertex="1">
          <mxGeometry x="425" y="290" width="80" height="80" as="geometry" />
        </mxCell>
        <mxCell id="yDBzF0w7hM6A0DgJ1MUk-26" style="edgeStyle=orthogonalEdgeStyle;rounded=0;orthogonalLoop=1;jettySize=auto;html=1;entryX=0;entryY=0.5;entryDx=0;entryDy=0;" parent="1" source="yDBzF0w7hM6A0DgJ1MUk-27" target="yDBzF0w7hM6A0DgJ1MUk-30" edge="1">
          <mxGeometry relative="1" as="geometry" />
        </mxCell>
        <mxCell id="yDBzF0w7hM6A0DgJ1MUk-27" value="4" style="ellipse;whiteSpace=wrap;html=1;aspect=fixed;" parent="1" vertex="1">
          <mxGeometry x="540" y="290" width="80" height="80" as="geometry" />
        </mxCell>
        <mxCell id="yDBzF0w7hM6A0DgJ1MUk-29" style="edgeStyle=orthogonalEdgeStyle;rounded=0;orthogonalLoop=1;jettySize=auto;html=1;entryX=0;entryY=0.5;entryDx=0;entryDy=0;" parent="1" source="yDBzF0w7hM6A0DgJ1MUk-30" target="yDBzF0w7hM6A0DgJ1MUk-31" edge="1">
          <mxGeometry relative="1" as="geometry" />
        </mxCell>
        <mxCell id="yDBzF0w7hM6A0DgJ1MUk-30" value="5" style="ellipse;whiteSpace=wrap;html=1;aspect=fixed;" parent="1" vertex="1">
          <mxGeometry x="660" y="290" width="80" height="80" as="geometry" />
        </mxCell>
        <mxCell id="yDBzF0w7hM6A0DgJ1MUk-38" style="edgeStyle=orthogonalEdgeStyle;rounded=0;orthogonalLoop=1;jettySize=auto;html=1;" parent="1" source="yDBzF0w7hM6A0DgJ1MUk-31" target="yDBzF0w7hM6A0DgJ1MUk-37" edge="1">
          <mxGeometry relative="1" as="geometry" />
        </mxCell>
        <mxCell id="yDBzF0w7hM6A0DgJ1MUk-31" value="6" style="ellipse;whiteSpace=wrap;html=1;aspect=fixed;fillColor=#a20025;fontColor=#ffffff;strokeColor=#6F0000;" parent="1" vertex="1">
          <mxGeometry x="780" y="290" width="80" height="80" as="geometry" />
        </mxCell>
        <mxCell id="yDBzF0w7hM6A0DgJ1MUk-32" value="prev" style="rounded=0;whiteSpace=wrap;html=1;" parent="1" vertex="1">
          <mxGeometry x="205" y="390" width="50" height="50" as="geometry" />
        </mxCell>
        <mxCell id="yDBzF0w7hM6A0DgJ1MUk-37" value="None" style="ellipse;whiteSpace=wrap;html=1;aspect=fixed;" parent="1" vertex="1">
          <mxGeometry x="910" y="290" width="80" height="80" as="geometry" />
        </mxCell>
        <mxCell id="yDBzF0w7hM6A0DgJ1MUk-41" style="edgeStyle=orthogonalEdgeStyle;rounded=0;orthogonalLoop=1;jettySize=auto;html=1;" parent="1" source="yDBzF0w7hM6A0DgJ1MUk-40" target="yDBzF0w7hM6A0DgJ1MUk-20" edge="1">
          <mxGeometry relative="1" as="geometry" />
        </mxCell>
        <mxCell id="yDBzF0w7hM6A0DgJ1MUk-40" value="D" style="ellipse;whiteSpace=wrap;html=1;aspect=fixed;fillColor=#a20025;fontColor=#ffffff;strokeColor=#6F0000;" parent="1" vertex="1">
          <mxGeometry x="60" y="290" width="80" height="80" as="geometry" />
        </mxCell>
        <mxCell id="yDBzF0w7hM6A0DgJ1MUk-43" value="" style="edgeStyle=orthogonalEdgeStyle;rounded=0;orthogonalLoop=1;jettySize=auto;html=1;entryX=0;entryY=0.5;entryDx=0;entryDy=0;" parent="1" source="yDBzF0w7hM6A0DgJ1MUk-44" target="yDBzF0w7hM6A0DgJ1MUk-46" edge="1">
          <mxGeometry relative="1" as="geometry" />
        </mxCell>
        <mxCell id="yDBzF0w7hM6A0DgJ1MUk-177" style="edgeStyle=orthogonalEdgeStyle;rounded=0;orthogonalLoop=1;jettySize=auto;html=1;entryX=0;entryY=0.5;entryDx=0;entryDy=0;" parent="1" source="yDBzF0w7hM6A0DgJ1MUk-44" target="yDBzF0w7hM6A0DgJ1MUk-48" edge="1">
          <mxGeometry relative="1" as="geometry">
            <Array as="points">
              <mxPoint x="230" y="730" />
            </Array>
          </mxGeometry>
        </mxCell>
        <mxCell id="yDBzF0w7hM6A0DgJ1MUk-44" value="1" style="ellipse;whiteSpace=wrap;html=1;aspect=fixed;fillColor=#a20025;fontColor=#ffffff;strokeColor=#6F0000;" parent="1" vertex="1">
          <mxGeometry x="190" y="560" width="80" height="80" as="geometry" />
        </mxCell>
        <mxCell id="yDBzF0w7hM6A0DgJ1MUk-65" style="edgeStyle=orthogonalEdgeStyle;rounded=0;orthogonalLoop=1;jettySize=auto;html=1;" parent="1" source="yDBzF0w7hM6A0DgJ1MUk-46" target="yDBzF0w7hM6A0DgJ1MUk-50" edge="1">
          <mxGeometry relative="1" as="geometry" />
        </mxCell>
        <mxCell id="yDBzF0w7hM6A0DgJ1MUk-46" value="2" style="ellipse;whiteSpace=wrap;html=1;aspect=fixed;" parent="1" vertex="1">
          <mxGeometry x="310" y="560" width="80" height="80" as="geometry" />
        </mxCell>
        <mxCell id="yDBzF0w7hM6A0DgJ1MUk-48" value="3" style="ellipse;whiteSpace=wrap;html=1;aspect=fixed;" parent="1" vertex="1">
          <mxGeometry x="310" y="690" width="80" height="80" as="geometry" />
        </mxCell>
        <mxCell id="yDBzF0w7hM6A0DgJ1MUk-49" style="edgeStyle=orthogonalEdgeStyle;rounded=0;orthogonalLoop=1;jettySize=auto;html=1;entryX=0;entryY=0.5;entryDx=0;entryDy=0;" parent="1" source="yDBzF0w7hM6A0DgJ1MUk-50" target="yDBzF0w7hM6A0DgJ1MUk-52" edge="1">
          <mxGeometry relative="1" as="geometry" />
        </mxCell>
        <mxCell id="yDBzF0w7hM6A0DgJ1MUk-50" value="4" style="ellipse;whiteSpace=wrap;html=1;aspect=fixed;" parent="1" vertex="1">
          <mxGeometry x="540" y="560" width="80" height="80" as="geometry" />
        </mxCell>
        <mxCell id="yDBzF0w7hM6A0DgJ1MUk-51" style="edgeStyle=orthogonalEdgeStyle;rounded=0;orthogonalLoop=1;jettySize=auto;html=1;entryX=0;entryY=0.5;entryDx=0;entryDy=0;" parent="1" source="yDBzF0w7hM6A0DgJ1MUk-52" target="yDBzF0w7hM6A0DgJ1MUk-54" edge="1">
          <mxGeometry relative="1" as="geometry" />
        </mxCell>
        <mxCell id="yDBzF0w7hM6A0DgJ1MUk-52" value="5" style="ellipse;whiteSpace=wrap;html=1;aspect=fixed;" parent="1" vertex="1">
          <mxGeometry x="660" y="560" width="80" height="80" as="geometry" />
        </mxCell>
        <mxCell id="yDBzF0w7hM6A0DgJ1MUk-53" style="edgeStyle=orthogonalEdgeStyle;rounded=0;orthogonalLoop=1;jettySize=auto;html=1;" parent="1" source="yDBzF0w7hM6A0DgJ1MUk-54" target="yDBzF0w7hM6A0DgJ1MUk-60" edge="1">
          <mxGeometry relative="1" as="geometry" />
        </mxCell>
        <mxCell id="yDBzF0w7hM6A0DgJ1MUk-54" value="6" style="ellipse;whiteSpace=wrap;html=1;aspect=fixed;fillColor=#a20025;fontColor=#ffffff;strokeColor=#6F0000;" parent="1" vertex="1">
          <mxGeometry x="780" y="560" width="80" height="80" as="geometry" />
        </mxCell>
        <mxCell id="yDBzF0w7hM6A0DgJ1MUk-55" value="prev" style="rounded=0;whiteSpace=wrap;html=1;" parent="1" vertex="1">
          <mxGeometry x="155" y="650" width="50" height="50" as="geometry" />
        </mxCell>
        <mxCell id="yDBzF0w7hM6A0DgJ1MUk-56" value="current" style="rounded=0;whiteSpace=wrap;html=1;" parent="1" vertex="1">
          <mxGeometry x="325" y="500" width="50" height="50" as="geometry" />
        </mxCell>
        <mxCell id="yDBzF0w7hM6A0DgJ1MUk-57" value="to&lt;br&gt;move" style="rounded=0;whiteSpace=wrap;html=1;" parent="1" vertex="1">
          <mxGeometry x="325" y="790" width="50" height="50" as="geometry" />
        </mxCell>
        <mxCell id="yDBzF0w7hM6A0DgJ1MUk-60" value="None" style="ellipse;whiteSpace=wrap;html=1;aspect=fixed;" parent="1" vertex="1">
          <mxGeometry x="910" y="560" width="80" height="80" as="geometry" />
        </mxCell>
        <mxCell id="yDBzF0w7hM6A0DgJ1MUk-62" style="edgeStyle=orthogonalEdgeStyle;rounded=0;orthogonalLoop=1;jettySize=auto;html=1;" parent="1" source="yDBzF0w7hM6A0DgJ1MUk-63" target="yDBzF0w7hM6A0DgJ1MUk-44" edge="1">
          <mxGeometry relative="1" as="geometry" />
        </mxCell>
        <mxCell id="yDBzF0w7hM6A0DgJ1MUk-63" value="D" style="ellipse;whiteSpace=wrap;html=1;aspect=fixed;fillColor=#a20025;fontColor=#ffffff;strokeColor=#6F0000;" parent="1" vertex="1">
          <mxGeometry x="60" y="560" width="80" height="80" as="geometry" />
        </mxCell>
        <mxCell id="yDBzF0w7hM6A0DgJ1MUk-66" value="" style="endArrow=classic;html=1;rounded=0;exitX=0.5;exitY=0;exitDx=0;exitDy=0;entryX=0.5;entryY=1;entryDx=0;entryDy=0;" parent="1" source="yDBzF0w7hM6A0DgJ1MUk-48" target="yDBzF0w7hM6A0DgJ1MUk-46" edge="1">
          <mxGeometry width="50" height="50" relative="1" as="geometry">
            <mxPoint x="450" y="630" as="sourcePoint" />
            <mxPoint x="500" y="580" as="targetPoint" />
          </mxGeometry>
        </mxCell>
        <mxCell id="yDBzF0w7hM6A0DgJ1MUk-88" value="" style="edgeStyle=orthogonalEdgeStyle;rounded=0;orthogonalLoop=1;jettySize=auto;html=1;entryX=0;entryY=0.5;entryDx=0;entryDy=0;" parent="1" source="yDBzF0w7hM6A0DgJ1MUk-89" target="yDBzF0w7hM6A0DgJ1MUk-91" edge="1">
          <mxGeometry relative="1" as="geometry" />
        </mxCell>
        <mxCell id="yDBzF0w7hM6A0DgJ1MUk-89" value="1" style="ellipse;whiteSpace=wrap;html=1;aspect=fixed;fillColor=#a20025;fontColor=#ffffff;strokeColor=#6F0000;" parent="1" vertex="1">
          <mxGeometry x="190" y="870" width="80" height="80" as="geometry" />
        </mxCell>
        <mxCell id="yDBzF0w7hM6A0DgJ1MUk-90" style="edgeStyle=orthogonalEdgeStyle;rounded=0;orthogonalLoop=1;jettySize=auto;html=1;entryX=0;entryY=0.5;entryDx=0;entryDy=0;" parent="1" source="yDBzF0w7hM6A0DgJ1MUk-91" target="yDBzF0w7hM6A0DgJ1MUk-93" edge="1">
          <mxGeometry relative="1" as="geometry" />
        </mxCell>
        <mxCell id="yDBzF0w7hM6A0DgJ1MUk-91" value="3" style="ellipse;whiteSpace=wrap;html=1;aspect=fixed;" parent="1" vertex="1">
          <mxGeometry x="310" y="870" width="80" height="80" as="geometry" />
        </mxCell>
        <mxCell id="yDBzF0w7hM6A0DgJ1MUk-92" style="edgeStyle=orthogonalEdgeStyle;rounded=0;orthogonalLoop=1;jettySize=auto;html=1;entryX=0;entryY=0.5;entryDx=0;entryDy=0;" parent="1" source="yDBzF0w7hM6A0DgJ1MUk-93" target="yDBzF0w7hM6A0DgJ1MUk-95" edge="1">
          <mxGeometry relative="1" as="geometry" />
        </mxCell>
        <mxCell id="yDBzF0w7hM6A0DgJ1MUk-93" value="2" style="ellipse;whiteSpace=wrap;html=1;aspect=fixed;" parent="1" vertex="1">
          <mxGeometry x="425" y="870" width="80" height="80" as="geometry" />
        </mxCell>
        <mxCell id="yDBzF0w7hM6A0DgJ1MUk-94" style="edgeStyle=orthogonalEdgeStyle;rounded=0;orthogonalLoop=1;jettySize=auto;html=1;entryX=0;entryY=0.5;entryDx=0;entryDy=0;" parent="1" source="yDBzF0w7hM6A0DgJ1MUk-95" target="yDBzF0w7hM6A0DgJ1MUk-97" edge="1">
          <mxGeometry relative="1" as="geometry" />
        </mxCell>
        <mxCell id="yDBzF0w7hM6A0DgJ1MUk-95" value="4" style="ellipse;whiteSpace=wrap;html=1;aspect=fixed;" parent="1" vertex="1">
          <mxGeometry x="540" y="870" width="80" height="80" as="geometry" />
        </mxCell>
        <mxCell id="yDBzF0w7hM6A0DgJ1MUk-96" style="edgeStyle=orthogonalEdgeStyle;rounded=0;orthogonalLoop=1;jettySize=auto;html=1;entryX=0;entryY=0.5;entryDx=0;entryDy=0;" parent="1" source="yDBzF0w7hM6A0DgJ1MUk-97" target="yDBzF0w7hM6A0DgJ1MUk-99" edge="1">
          <mxGeometry relative="1" as="geometry" />
        </mxCell>
        <mxCell id="yDBzF0w7hM6A0DgJ1MUk-97" value="5" style="ellipse;whiteSpace=wrap;html=1;aspect=fixed;" parent="1" vertex="1">
          <mxGeometry x="660" y="870" width="80" height="80" as="geometry" />
        </mxCell>
        <mxCell id="yDBzF0w7hM6A0DgJ1MUk-98" style="edgeStyle=orthogonalEdgeStyle;rounded=0;orthogonalLoop=1;jettySize=auto;html=1;" parent="1" source="yDBzF0w7hM6A0DgJ1MUk-99" target="yDBzF0w7hM6A0DgJ1MUk-105" edge="1">
          <mxGeometry relative="1" as="geometry" />
        </mxCell>
        <mxCell id="yDBzF0w7hM6A0DgJ1MUk-99" value="6" style="ellipse;whiteSpace=wrap;html=1;aspect=fixed;fillColor=#a20025;fontColor=#ffffff;strokeColor=#6F0000;" parent="1" vertex="1">
          <mxGeometry x="780" y="870" width="80" height="80" as="geometry" />
        </mxCell>
        <mxCell id="yDBzF0w7hM6A0DgJ1MUk-100" value="prev" style="rounded=0;whiteSpace=wrap;html=1;" parent="1" vertex="1">
          <mxGeometry x="205" y="970" width="50" height="50" as="geometry" />
        </mxCell>
        <mxCell id="yDBzF0w7hM6A0DgJ1MUk-101" value="current" style="rounded=0;whiteSpace=wrap;html=1;" parent="1" vertex="1">
          <mxGeometry x="440" y="970" width="50" height="50" as="geometry" />
        </mxCell>
        <mxCell id="yDBzF0w7hM6A0DgJ1MUk-103" value="to&lt;br&gt;move" style="rounded=0;whiteSpace=wrap;html=1;" parent="1" vertex="1">
          <mxGeometry x="555" y="970" width="50" height="50" as="geometry" />
        </mxCell>
        <mxCell id="yDBzF0w7hM6A0DgJ1MUk-105" value="None" style="ellipse;whiteSpace=wrap;html=1;aspect=fixed;" parent="1" vertex="1">
          <mxGeometry x="910" y="870" width="80" height="80" as="geometry" />
        </mxCell>
        <mxCell id="yDBzF0w7hM6A0DgJ1MUk-107" style="edgeStyle=orthogonalEdgeStyle;rounded=0;orthogonalLoop=1;jettySize=auto;html=1;" parent="1" source="yDBzF0w7hM6A0DgJ1MUk-108" target="yDBzF0w7hM6A0DgJ1MUk-89" edge="1">
          <mxGeometry relative="1" as="geometry" />
        </mxCell>
        <mxCell id="yDBzF0w7hM6A0DgJ1MUk-108" value="D" style="ellipse;whiteSpace=wrap;html=1;aspect=fixed;fillColor=#a20025;fontColor=#ffffff;strokeColor=#6F0000;" parent="1" vertex="1">
          <mxGeometry x="60" y="870" width="80" height="80" as="geometry" />
        </mxCell>
        <mxCell id="yDBzF0w7hM6A0DgJ1MUk-130" value="" style="edgeStyle=orthogonalEdgeStyle;rounded=0;orthogonalLoop=1;jettySize=auto;html=1;entryX=0;entryY=0.5;entryDx=0;entryDy=0;" parent="1" source="yDBzF0w7hM6A0DgJ1MUk-131" target="yDBzF0w7hM6A0DgJ1MUk-133" edge="1">
          <mxGeometry relative="1" as="geometry" />
        </mxCell>
        <mxCell id="yDBzF0w7hM6A0DgJ1MUk-131" value="1" style="ellipse;whiteSpace=wrap;html=1;aspect=fixed;fillColor=#a20025;fontColor=#ffffff;strokeColor=#6F0000;" parent="1" vertex="1">
          <mxGeometry x="190" y="1090" width="80" height="80" as="geometry" />
        </mxCell>
        <mxCell id="yDBzF0w7hM6A0DgJ1MUk-132" style="edgeStyle=orthogonalEdgeStyle;rounded=0;orthogonalLoop=1;jettySize=auto;html=1;entryX=0;entryY=0.5;entryDx=0;entryDy=0;" parent="1" source="yDBzF0w7hM6A0DgJ1MUk-133" target="yDBzF0w7hM6A0DgJ1MUk-135" edge="1">
          <mxGeometry relative="1" as="geometry" />
        </mxCell>
        <mxCell id="yDBzF0w7hM6A0DgJ1MUk-133" value="3" style="ellipse;whiteSpace=wrap;html=1;aspect=fixed;" parent="1" vertex="1">
          <mxGeometry x="310" y="1090" width="80" height="80" as="geometry" />
        </mxCell>
        <mxCell id="yDBzF0w7hM6A0DgJ1MUk-153" style="edgeStyle=orthogonalEdgeStyle;rounded=0;orthogonalLoop=1;jettySize=auto;html=1;" parent="1" source="yDBzF0w7hM6A0DgJ1MUk-135" target="yDBzF0w7hM6A0DgJ1MUk-139" edge="1">
          <mxGeometry relative="1" as="geometry" />
        </mxCell>
        <mxCell id="yDBzF0w7hM6A0DgJ1MUk-135" value="2" style="ellipse;whiteSpace=wrap;html=1;aspect=fixed;" parent="1" vertex="1">
          <mxGeometry x="425" y="1090" width="80" height="80" as="geometry" />
        </mxCell>
        <mxCell id="yDBzF0w7hM6A0DgJ1MUk-151" style="edgeStyle=orthogonalEdgeStyle;rounded=0;orthogonalLoop=1;jettySize=auto;html=1;" parent="1" source="yDBzF0w7hM6A0DgJ1MUk-137" target="yDBzF0w7hM6A0DgJ1MUk-133" edge="1">
          <mxGeometry relative="1" as="geometry" />
        </mxCell>
        <mxCell id="yDBzF0w7hM6A0DgJ1MUk-137" value="4" style="ellipse;whiteSpace=wrap;html=1;aspect=fixed;" parent="1" vertex="1">
          <mxGeometry x="310" y="1250" width="80" height="80" as="geometry" />
        </mxCell>
        <mxCell id="yDBzF0w7hM6A0DgJ1MUk-138" style="edgeStyle=orthogonalEdgeStyle;rounded=0;orthogonalLoop=1;jettySize=auto;html=1;entryX=0;entryY=0.5;entryDx=0;entryDy=0;" parent="1" source="yDBzF0w7hM6A0DgJ1MUk-139" target="yDBzF0w7hM6A0DgJ1MUk-141" edge="1">
          <mxGeometry relative="1" as="geometry" />
        </mxCell>
        <mxCell id="yDBzF0w7hM6A0DgJ1MUk-139" value="5" style="ellipse;whiteSpace=wrap;html=1;aspect=fixed;" parent="1" vertex="1">
          <mxGeometry x="660" y="1090" width="80" height="80" as="geometry" />
        </mxCell>
        <mxCell id="yDBzF0w7hM6A0DgJ1MUk-140" style="edgeStyle=orthogonalEdgeStyle;rounded=0;orthogonalLoop=1;jettySize=auto;html=1;" parent="1" source="yDBzF0w7hM6A0DgJ1MUk-141" target="yDBzF0w7hM6A0DgJ1MUk-146" edge="1">
          <mxGeometry relative="1" as="geometry" />
        </mxCell>
        <mxCell id="yDBzF0w7hM6A0DgJ1MUk-141" value="6" style="ellipse;whiteSpace=wrap;html=1;aspect=fixed;fillColor=#a20025;fontColor=#ffffff;strokeColor=#6F0000;" parent="1" vertex="1">
          <mxGeometry x="780" y="1090" width="80" height="80" as="geometry" />
        </mxCell>
        <mxCell id="yDBzF0w7hM6A0DgJ1MUk-142" value="prev" style="rounded=0;whiteSpace=wrap;html=1;" parent="1" vertex="1">
          <mxGeometry x="75" y="1200" width="50" height="50" as="geometry" />
        </mxCell>
        <mxCell id="yDBzF0w7hM6A0DgJ1MUk-143" value="current" style="rounded=0;whiteSpace=wrap;html=1;" parent="1" vertex="1">
          <mxGeometry x="440" y="1200" width="50" height="50" as="geometry" />
        </mxCell>
        <mxCell id="yDBzF0w7hM6A0DgJ1MUk-144" value="to&lt;br&gt;move" style="rounded=0;whiteSpace=wrap;html=1;" parent="1" vertex="1">
          <mxGeometry x="325" y="1350" width="50" height="50" as="geometry" />
        </mxCell>
        <mxCell id="yDBzF0w7hM6A0DgJ1MUk-146" value="None" style="ellipse;whiteSpace=wrap;html=1;aspect=fixed;" parent="1" vertex="1">
          <mxGeometry x="910" y="1090" width="80" height="80" as="geometry" />
        </mxCell>
        <mxCell id="yDBzF0w7hM6A0DgJ1MUk-148" style="edgeStyle=orthogonalEdgeStyle;rounded=0;orthogonalLoop=1;jettySize=auto;html=1;" parent="1" source="yDBzF0w7hM6A0DgJ1MUk-149" target="yDBzF0w7hM6A0DgJ1MUk-131" edge="1">
          <mxGeometry relative="1" as="geometry" />
        </mxCell>
        <mxCell id="yDBzF0w7hM6A0DgJ1MUk-149" value="D" style="ellipse;whiteSpace=wrap;html=1;aspect=fixed;fillColor=#a20025;fontColor=#ffffff;strokeColor=#6F0000;" parent="1" vertex="1">
          <mxGeometry x="60" y="1090" width="80" height="80" as="geometry" />
        </mxCell>
        <mxCell id="yDBzF0w7hM6A0DgJ1MUk-152" value="" style="endArrow=classic;html=1;rounded=0;exitX=1;exitY=1;exitDx=0;exitDy=0;entryX=0;entryY=0.5;entryDx=0;entryDy=0;" parent="1" source="yDBzF0w7hM6A0DgJ1MUk-131" target="yDBzF0w7hM6A0DgJ1MUk-137" edge="1">
          <mxGeometry width="50" height="50" relative="1" as="geometry">
            <mxPoint x="630" y="1140" as="sourcePoint" />
            <mxPoint x="680" y="1090" as="targetPoint" />
            <Array as="points">
              <mxPoint x="258" y="1290" />
            </Array>
          </mxGeometry>
        </mxCell>
        <mxCell id="yDBzF0w7hM6A0DgJ1MUk-154" value="" style="edgeStyle=orthogonalEdgeStyle;rounded=0;orthogonalLoop=1;jettySize=auto;html=1;entryX=0;entryY=0.5;entryDx=0;entryDy=0;" parent="1" source="yDBzF0w7hM6A0DgJ1MUk-155" target="yDBzF0w7hM6A0DgJ1MUk-157" edge="1">
          <mxGeometry relative="1" as="geometry" />
        </mxCell>
        <mxCell id="yDBzF0w7hM6A0DgJ1MUk-155" value="1" style="ellipse;whiteSpace=wrap;html=1;aspect=fixed;fillColor=#a20025;fontColor=#ffffff;strokeColor=#6F0000;" parent="1" vertex="1">
          <mxGeometry x="190" y="1470" width="80" height="80" as="geometry" />
        </mxCell>
        <mxCell id="yDBzF0w7hM6A0DgJ1MUk-156" style="edgeStyle=orthogonalEdgeStyle;rounded=0;orthogonalLoop=1;jettySize=auto;html=1;entryX=0;entryY=0.5;entryDx=0;entryDy=0;" parent="1" source="yDBzF0w7hM6A0DgJ1MUk-157" target="yDBzF0w7hM6A0DgJ1MUk-159" edge="1">
          <mxGeometry relative="1" as="geometry" />
        </mxCell>
        <mxCell id="yDBzF0w7hM6A0DgJ1MUk-157" value="4" style="ellipse;whiteSpace=wrap;html=1;aspect=fixed;" parent="1" vertex="1">
          <mxGeometry x="310" y="1470" width="80" height="80" as="geometry" />
        </mxCell>
        <mxCell id="yDBzF0w7hM6A0DgJ1MUk-158" style="edgeStyle=orthogonalEdgeStyle;rounded=0;orthogonalLoop=1;jettySize=auto;html=1;entryX=0;entryY=0.5;entryDx=0;entryDy=0;" parent="1" source="yDBzF0w7hM6A0DgJ1MUk-159" target="yDBzF0w7hM6A0DgJ1MUk-161" edge="1">
          <mxGeometry relative="1" as="geometry" />
        </mxCell>
        <mxCell id="yDBzF0w7hM6A0DgJ1MUk-159" value="3" style="ellipse;whiteSpace=wrap;html=1;aspect=fixed;" parent="1" vertex="1">
          <mxGeometry x="425" y="1470" width="80" height="80" as="geometry" />
        </mxCell>
        <mxCell id="yDBzF0w7hM6A0DgJ1MUk-160" style="edgeStyle=orthogonalEdgeStyle;rounded=0;orthogonalLoop=1;jettySize=auto;html=1;entryX=0;entryY=0.5;entryDx=0;entryDy=0;" parent="1" source="yDBzF0w7hM6A0DgJ1MUk-161" target="yDBzF0w7hM6A0DgJ1MUk-163" edge="1">
          <mxGeometry relative="1" as="geometry" />
        </mxCell>
        <mxCell id="yDBzF0w7hM6A0DgJ1MUk-161" value="2" style="ellipse;whiteSpace=wrap;html=1;aspect=fixed;" parent="1" vertex="1">
          <mxGeometry x="540" y="1470" width="80" height="80" as="geometry" />
        </mxCell>
        <mxCell id="yDBzF0w7hM6A0DgJ1MUk-162" style="edgeStyle=orthogonalEdgeStyle;rounded=0;orthogonalLoop=1;jettySize=auto;html=1;entryX=0;entryY=0.5;entryDx=0;entryDy=0;" parent="1" source="yDBzF0w7hM6A0DgJ1MUk-163" target="yDBzF0w7hM6A0DgJ1MUk-165" edge="1">
          <mxGeometry relative="1" as="geometry" />
        </mxCell>
        <mxCell id="yDBzF0w7hM6A0DgJ1MUk-163" value="5" style="ellipse;whiteSpace=wrap;html=1;aspect=fixed;" parent="1" vertex="1">
          <mxGeometry x="660" y="1470" width="80" height="80" as="geometry" />
        </mxCell>
        <mxCell id="yDBzF0w7hM6A0DgJ1MUk-164" style="edgeStyle=orthogonalEdgeStyle;rounded=0;orthogonalLoop=1;jettySize=auto;html=1;" parent="1" source="yDBzF0w7hM6A0DgJ1MUk-165" target="yDBzF0w7hM6A0DgJ1MUk-170" edge="1">
          <mxGeometry relative="1" as="geometry" />
        </mxCell>
        <mxCell id="yDBzF0w7hM6A0DgJ1MUk-165" value="6" style="ellipse;whiteSpace=wrap;html=1;aspect=fixed;fillColor=#a20025;fontColor=#ffffff;strokeColor=#6F0000;" parent="1" vertex="1">
          <mxGeometry x="780" y="1470" width="80" height="80" as="geometry" />
        </mxCell>
        <mxCell id="yDBzF0w7hM6A0DgJ1MUk-166" value="prev" style="rounded=0;whiteSpace=wrap;html=1;" parent="1" vertex="1">
          <mxGeometry x="205" y="1570" width="50" height="50" as="geometry" />
        </mxCell>
        <mxCell id="yDBzF0w7hM6A0DgJ1MUk-167" value="current" style="rounded=0;whiteSpace=wrap;html=1;" parent="1" vertex="1">
          <mxGeometry x="555" y="1570" width="50" height="50" as="geometry" />
        </mxCell>
        <mxCell id="yDBzF0w7hM6A0DgJ1MUk-168" value="to&lt;br&gt;move" style="rounded=0;whiteSpace=wrap;html=1;" parent="1" vertex="1">
          <mxGeometry x="675" y="1570" width="50" height="50" as="geometry" />
        </mxCell>
        <mxCell id="yDBzF0w7hM6A0DgJ1MUk-170" value="None" style="ellipse;whiteSpace=wrap;html=1;aspect=fixed;" parent="1" vertex="1">
          <mxGeometry x="910" y="1470" width="80" height="80" as="geometry" />
        </mxCell>
        <mxCell id="yDBzF0w7hM6A0DgJ1MUk-172" style="edgeStyle=orthogonalEdgeStyle;rounded=0;orthogonalLoop=1;jettySize=auto;html=1;" parent="1" source="yDBzF0w7hM6A0DgJ1MUk-173" target="yDBzF0w7hM6A0DgJ1MUk-155" edge="1">
          <mxGeometry relative="1" as="geometry" />
        </mxCell>
        <mxCell id="yDBzF0w7hM6A0DgJ1MUk-173" value="D" style="ellipse;whiteSpace=wrap;html=1;aspect=fixed;fillColor=#a20025;fontColor=#ffffff;strokeColor=#6F0000;" parent="1" vertex="1">
          <mxGeometry x="60" y="1470" width="80" height="80" as="geometry" />
        </mxCell>
        <mxCell id="yDBzF0w7hM6A0DgJ1MUk-181" value="head" style="text;html=1;align=center;verticalAlign=middle;whiteSpace=wrap;rounded=0;" parent="1" vertex="1">
          <mxGeometry x="200" y="250" width="60" height="30" as="geometry" />
        </mxCell>
        <mxCell id="AFDFajlefnu-A4AqRoKw-2" value="Current" style="rounded=0;whiteSpace=wrap;html=1;" parent="1" vertex="1">
          <mxGeometry x="325" y="220" width="50" height="50" as="geometry" />
        </mxCell>
        <mxCell id="AFDFajlefnu-A4AqRoKw-3" value="Move" style="rounded=0;whiteSpace=wrap;html=1;" parent="1" vertex="1">
          <mxGeometry x="440" y="390" width="50" height="50" as="geometry" />
        </mxCell>
        <mxCell id="AFDFajlefnu-A4AqRoKw-4" value="to_move&lt;br&gt;.next" style="rounded=0;whiteSpace=wrap;html=1;" parent="1" vertex="1">
          <mxGeometry x="555" y="490" width="50" height="50" as="geometry" />
        </mxCell>
      </root>
    </mxGraphModel>
  </diagram>
  <diagram id="dTQUKsj0hDTSQQa9JL9x" name="DoubleLL">
    <mxGraphModel dx="1718" dy="439" grid="1" gridSize="10" guides="1" tooltips="1" connect="1" arrows="1" fold="1" page="1" pageScale="1" pageWidth="850" pageHeight="1100" math="0" shadow="0">
      <root>
        <mxCell id="0" />
        <mxCell id="1" parent="0" />
        <mxCell id="iwvavYF3wBm5tSGnuBTQ-188" value="" style="rounded=0;whiteSpace=wrap;html=1;" vertex="1" parent="1">
          <mxGeometry x="-35" y="1120" width="1010" height="1550" as="geometry" />
        </mxCell>
        <mxCell id="iwvavYF3wBm5tSGnuBTQ-70" value="" style="rounded=0;whiteSpace=wrap;html=1;" vertex="1" parent="1">
          <mxGeometry x="-40" y="330" width="1010" height="670" as="geometry" />
        </mxCell>
        <mxCell id="iwvavYF3wBm5tSGnuBTQ-1" value="" style="edgeStyle=orthogonalEdgeStyle;rounded=0;orthogonalLoop=1;jettySize=auto;html=1;entryX=0;entryY=0.5;entryDx=0;entryDy=0;" edge="1" parent="1" source="iwvavYF3wBm5tSGnuBTQ-2" target="iwvavYF3wBm5tSGnuBTQ-4">
          <mxGeometry relative="1" as="geometry" />
        </mxCell>
        <mxCell id="iwvavYF3wBm5tSGnuBTQ-2" value="1" style="ellipse;whiteSpace=wrap;html=1;aspect=fixed;" vertex="1" parent="1">
          <mxGeometry x="130" y="150" width="80" height="80" as="geometry" />
        </mxCell>
        <mxCell id="iwvavYF3wBm5tSGnuBTQ-3" style="edgeStyle=orthogonalEdgeStyle;rounded=0;orthogonalLoop=1;jettySize=auto;html=1;entryX=0;entryY=0.5;entryDx=0;entryDy=0;" edge="1" parent="1" source="iwvavYF3wBm5tSGnuBTQ-4" target="iwvavYF3wBm5tSGnuBTQ-6">
          <mxGeometry relative="1" as="geometry" />
        </mxCell>
        <mxCell id="iwvavYF3wBm5tSGnuBTQ-4" value="2" style="ellipse;whiteSpace=wrap;html=1;aspect=fixed;fillColor=#1ba1e2;fontColor=#ffffff;strokeColor=#006EAF;" vertex="1" parent="1">
          <mxGeometry x="250" y="150" width="80" height="80" as="geometry" />
        </mxCell>
        <mxCell id="iwvavYF3wBm5tSGnuBTQ-5" style="edgeStyle=orthogonalEdgeStyle;rounded=0;orthogonalLoop=1;jettySize=auto;html=1;entryX=0;entryY=0.5;entryDx=0;entryDy=0;" edge="1" parent="1" source="iwvavYF3wBm5tSGnuBTQ-6" target="iwvavYF3wBm5tSGnuBTQ-8">
          <mxGeometry relative="1" as="geometry" />
        </mxCell>
        <mxCell id="iwvavYF3wBm5tSGnuBTQ-6" value="3" style="ellipse;whiteSpace=wrap;html=1;aspect=fixed;" vertex="1" parent="1">
          <mxGeometry x="365" y="150" width="80" height="80" as="geometry" />
        </mxCell>
        <mxCell id="iwvavYF3wBm5tSGnuBTQ-7" style="edgeStyle=orthogonalEdgeStyle;rounded=0;orthogonalLoop=1;jettySize=auto;html=1;entryX=0;entryY=0.5;entryDx=0;entryDy=0;" edge="1" parent="1" source="iwvavYF3wBm5tSGnuBTQ-8" target="iwvavYF3wBm5tSGnuBTQ-10">
          <mxGeometry relative="1" as="geometry" />
        </mxCell>
        <mxCell id="iwvavYF3wBm5tSGnuBTQ-8" value="4" style="ellipse;whiteSpace=wrap;html=1;aspect=fixed;" vertex="1" parent="1">
          <mxGeometry x="480" y="150" width="80" height="80" as="geometry" />
        </mxCell>
        <mxCell id="iwvavYF3wBm5tSGnuBTQ-9" style="edgeStyle=orthogonalEdgeStyle;rounded=0;orthogonalLoop=1;jettySize=auto;html=1;entryX=0;entryY=0.5;entryDx=0;entryDy=0;" edge="1" parent="1" source="iwvavYF3wBm5tSGnuBTQ-10" target="iwvavYF3wBm5tSGnuBTQ-12">
          <mxGeometry relative="1" as="geometry" />
        </mxCell>
        <mxCell id="iwvavYF3wBm5tSGnuBTQ-10" value="5" style="ellipse;whiteSpace=wrap;html=1;aspect=fixed;fillColor=#1ba1e2;fontColor=#ffffff;strokeColor=#006EAF;" vertex="1" parent="1">
          <mxGeometry x="600" y="150" width="80" height="80" as="geometry" />
        </mxCell>
        <mxCell id="iwvavYF3wBm5tSGnuBTQ-11" style="edgeStyle=orthogonalEdgeStyle;rounded=0;orthogonalLoop=1;jettySize=auto;html=1;" edge="1" parent="1" source="iwvavYF3wBm5tSGnuBTQ-12" target="iwvavYF3wBm5tSGnuBTQ-14">
          <mxGeometry relative="1" as="geometry" />
        </mxCell>
        <mxCell id="iwvavYF3wBm5tSGnuBTQ-12" value="6" style="ellipse;whiteSpace=wrap;html=1;aspect=fixed;" vertex="1" parent="1">
          <mxGeometry x="720" y="150" width="80" height="80" as="geometry" />
        </mxCell>
        <mxCell id="iwvavYF3wBm5tSGnuBTQ-13" value="left" style="rounded=0;whiteSpace=wrap;html=1;" vertex="1" parent="1">
          <mxGeometry x="145" y="240" width="50" height="50" as="geometry" />
        </mxCell>
        <mxCell id="iwvavYF3wBm5tSGnuBTQ-14" value="None" style="ellipse;whiteSpace=wrap;html=1;aspect=fixed;" vertex="1" parent="1">
          <mxGeometry x="850" y="150" width="80" height="80" as="geometry" />
        </mxCell>
        <mxCell id="iwvavYF3wBm5tSGnuBTQ-15" style="edgeStyle=orthogonalEdgeStyle;rounded=0;orthogonalLoop=1;jettySize=auto;html=1;" edge="1" parent="1" source="iwvavYF3wBm5tSGnuBTQ-16" target="iwvavYF3wBm5tSGnuBTQ-2">
          <mxGeometry relative="1" as="geometry" />
        </mxCell>
        <mxCell id="iwvavYF3wBm5tSGnuBTQ-16" value="D" style="ellipse;whiteSpace=wrap;html=1;aspect=fixed;fillColor=#a20025;fontColor=#ffffff;strokeColor=#6F0000;" vertex="1" parent="1">
          <mxGeometry y="150" width="80" height="80" as="geometry" />
        </mxCell>
        <mxCell id="iwvavYF3wBm5tSGnuBTQ-17" value="head" style="text;html=1;align=center;verticalAlign=middle;whiteSpace=wrap;rounded=0;" vertex="1" parent="1">
          <mxGeometry x="140" y="110" width="60" height="30" as="geometry" />
        </mxCell>
        <mxCell id="iwvavYF3wBm5tSGnuBTQ-18" value="removed" style="rounded=0;whiteSpace=wrap;html=1;" vertex="1" parent="1">
          <mxGeometry x="265" y="240" width="50" height="50" as="geometry" />
        </mxCell>
        <mxCell id="iwvavYF3wBm5tSGnuBTQ-19" value="to_move" style="rounded=0;whiteSpace=wrap;html=1;" vertex="1" parent="1">
          <mxGeometry x="380" y="240" width="50" height="50" as="geometry" />
        </mxCell>
        <mxCell id="iwvavYF3wBm5tSGnuBTQ-21" value="&lt;h1 style=&quot;margin-top: 0px;&quot;&gt;Reverse Between Double Linked List&lt;/h1&gt;&lt;p&gt;start_index = 2&lt;/p&gt;&lt;p&gt;end_index = 5&lt;/p&gt;" style="text;html=1;whiteSpace=wrap;overflow=hidden;rounded=0;" vertex="1" parent="1">
          <mxGeometry x="140" width="430" height="120" as="geometry" />
        </mxCell>
        <mxCell id="iwvavYF3wBm5tSGnuBTQ-25" value="" style="edgeStyle=orthogonalEdgeStyle;rounded=0;orthogonalLoop=1;jettySize=auto;html=1;entryX=0;entryY=0.5;entryDx=0;entryDy=0;" edge="1" parent="1" source="iwvavYF3wBm5tSGnuBTQ-26" target="iwvavYF3wBm5tSGnuBTQ-28">
          <mxGeometry relative="1" as="geometry" />
        </mxCell>
        <mxCell id="iwvavYF3wBm5tSGnuBTQ-26" value="1" style="ellipse;whiteSpace=wrap;html=1;aspect=fixed;" vertex="1" parent="1">
          <mxGeometry x="130" y="530" width="80" height="80" as="geometry" />
        </mxCell>
        <mxCell id="iwvavYF3wBm5tSGnuBTQ-27" style="edgeStyle=orthogonalEdgeStyle;rounded=0;orthogonalLoop=1;jettySize=auto;html=1;entryX=0;entryY=0.5;entryDx=0;entryDy=0;" edge="1" parent="1" source="iwvavYF3wBm5tSGnuBTQ-28" target="iwvavYF3wBm5tSGnuBTQ-30">
          <mxGeometry relative="1" as="geometry" />
        </mxCell>
        <mxCell id="iwvavYF3wBm5tSGnuBTQ-63" style="edgeStyle=orthogonalEdgeStyle;rounded=0;orthogonalLoop=1;jettySize=auto;html=1;entryX=0.5;entryY=0;entryDx=0;entryDy=0;fillColor=#a0522d;strokeColor=#6D1F00;" edge="1" parent="1" source="iwvavYF3wBm5tSGnuBTQ-28" target="iwvavYF3wBm5tSGnuBTQ-30">
          <mxGeometry relative="1" as="geometry">
            <Array as="points">
              <mxPoint x="290" y="510" />
              <mxPoint x="405" y="510" />
            </Array>
          </mxGeometry>
        </mxCell>
        <mxCell id="iwvavYF3wBm5tSGnuBTQ-28" value="2" style="ellipse;whiteSpace=wrap;html=1;aspect=fixed;fillColor=#1ba1e2;fontColor=#ffffff;strokeColor=#006EAF;" vertex="1" parent="1">
          <mxGeometry x="250" y="530" width="80" height="80" as="geometry" />
        </mxCell>
        <mxCell id="iwvavYF3wBm5tSGnuBTQ-29" style="edgeStyle=orthogonalEdgeStyle;rounded=0;orthogonalLoop=1;jettySize=auto;html=1;entryX=0;entryY=0.5;entryDx=0;entryDy=0;" edge="1" parent="1" source="iwvavYF3wBm5tSGnuBTQ-30" target="iwvavYF3wBm5tSGnuBTQ-32">
          <mxGeometry relative="1" as="geometry" />
        </mxCell>
        <mxCell id="iwvavYF3wBm5tSGnuBTQ-66" style="edgeStyle=orthogonalEdgeStyle;rounded=0;orthogonalLoop=1;jettySize=auto;html=1;entryX=0.5;entryY=0;entryDx=0;entryDy=0;" edge="1" parent="1" source="iwvavYF3wBm5tSGnuBTQ-30" target="iwvavYF3wBm5tSGnuBTQ-32">
          <mxGeometry relative="1" as="geometry">
            <Array as="points">
              <mxPoint x="430" y="510" />
              <mxPoint x="520" y="510" />
            </Array>
          </mxGeometry>
        </mxCell>
        <mxCell id="iwvavYF3wBm5tSGnuBTQ-30" value="3" style="ellipse;whiteSpace=wrap;html=1;aspect=fixed;" vertex="1" parent="1">
          <mxGeometry x="365" y="530" width="80" height="80" as="geometry" />
        </mxCell>
        <mxCell id="iwvavYF3wBm5tSGnuBTQ-31" style="edgeStyle=orthogonalEdgeStyle;rounded=0;orthogonalLoop=1;jettySize=auto;html=1;entryX=0;entryY=0.5;entryDx=0;entryDy=0;" edge="1" parent="1" source="iwvavYF3wBm5tSGnuBTQ-32" target="iwvavYF3wBm5tSGnuBTQ-34">
          <mxGeometry relative="1" as="geometry" />
        </mxCell>
        <mxCell id="iwvavYF3wBm5tSGnuBTQ-32" value="4" style="ellipse;whiteSpace=wrap;html=1;aspect=fixed;fillColor=#a0522d;fontColor=#ffffff;strokeColor=#6D1F00;" vertex="1" parent="1">
          <mxGeometry x="480" y="530" width="80" height="80" as="geometry" />
        </mxCell>
        <mxCell id="iwvavYF3wBm5tSGnuBTQ-33" style="edgeStyle=orthogonalEdgeStyle;rounded=0;orthogonalLoop=1;jettySize=auto;html=1;entryX=0;entryY=0.5;entryDx=0;entryDy=0;" edge="1" parent="1" source="iwvavYF3wBm5tSGnuBTQ-34" target="iwvavYF3wBm5tSGnuBTQ-36">
          <mxGeometry relative="1" as="geometry" />
        </mxCell>
        <mxCell id="iwvavYF3wBm5tSGnuBTQ-34" value="5" style="ellipse;whiteSpace=wrap;html=1;aspect=fixed;fillColor=#1ba1e2;fontColor=#ffffff;strokeColor=#006EAF;" vertex="1" parent="1">
          <mxGeometry x="600" y="530" width="80" height="80" as="geometry" />
        </mxCell>
        <mxCell id="iwvavYF3wBm5tSGnuBTQ-35" style="edgeStyle=orthogonalEdgeStyle;rounded=0;orthogonalLoop=1;jettySize=auto;html=1;" edge="1" parent="1" source="iwvavYF3wBm5tSGnuBTQ-36" target="iwvavYF3wBm5tSGnuBTQ-38">
          <mxGeometry relative="1" as="geometry" />
        </mxCell>
        <mxCell id="iwvavYF3wBm5tSGnuBTQ-36" value="6" style="ellipse;whiteSpace=wrap;html=1;aspect=fixed;" vertex="1" parent="1">
          <mxGeometry x="720" y="530" width="80" height="80" as="geometry" />
        </mxCell>
        <mxCell id="iwvavYF3wBm5tSGnuBTQ-37" value="left" style="rounded=0;whiteSpace=wrap;html=1;" vertex="1" parent="1">
          <mxGeometry x="145" y="620" width="50" height="50" as="geometry" />
        </mxCell>
        <mxCell id="iwvavYF3wBm5tSGnuBTQ-38" value="None" style="ellipse;whiteSpace=wrap;html=1;aspect=fixed;" vertex="1" parent="1">
          <mxGeometry x="850" y="530" width="80" height="80" as="geometry" />
        </mxCell>
        <mxCell id="iwvavYF3wBm5tSGnuBTQ-39" style="edgeStyle=orthogonalEdgeStyle;rounded=0;orthogonalLoop=1;jettySize=auto;html=1;" edge="1" parent="1" source="iwvavYF3wBm5tSGnuBTQ-40" target="iwvavYF3wBm5tSGnuBTQ-26">
          <mxGeometry relative="1" as="geometry" />
        </mxCell>
        <mxCell id="iwvavYF3wBm5tSGnuBTQ-40" value="D" style="ellipse;whiteSpace=wrap;html=1;aspect=fixed;fillColor=#a20025;fontColor=#ffffff;strokeColor=#6F0000;" vertex="1" parent="1">
          <mxGeometry y="530" width="80" height="80" as="geometry" />
        </mxCell>
        <mxCell id="iwvavYF3wBm5tSGnuBTQ-41" value="head" style="text;html=1;align=center;verticalAlign=middle;whiteSpace=wrap;rounded=0;" vertex="1" parent="1">
          <mxGeometry x="140" y="490" width="60" height="30" as="geometry" />
        </mxCell>
        <mxCell id="iwvavYF3wBm5tSGnuBTQ-42" value="mid" style="rounded=0;whiteSpace=wrap;html=1;" vertex="1" parent="1">
          <mxGeometry x="265" y="620" width="50" height="50" as="geometry" />
        </mxCell>
        <mxCell id="iwvavYF3wBm5tSGnuBTQ-43" value="right" style="rounded=0;whiteSpace=wrap;html=1;" vertex="1" parent="1">
          <mxGeometry x="380" y="620" width="50" height="50" as="geometry" />
        </mxCell>
        <mxCell id="iwvavYF3wBm5tSGnuBTQ-44" value="" style="edgeStyle=orthogonalEdgeStyle;rounded=0;orthogonalLoop=1;jettySize=auto;html=1;entryX=0;entryY=0.5;entryDx=0;entryDy=0;" edge="1" parent="1" source="iwvavYF3wBm5tSGnuBTQ-45" target="iwvavYF3wBm5tSGnuBTQ-47">
          <mxGeometry relative="1" as="geometry" />
        </mxCell>
        <mxCell id="iwvavYF3wBm5tSGnuBTQ-45" value="1" style="ellipse;whiteSpace=wrap;html=1;aspect=fixed;" vertex="1" parent="1">
          <mxGeometry x="130" y="800" width="80" height="80" as="geometry" />
        </mxCell>
        <mxCell id="iwvavYF3wBm5tSGnuBTQ-46" style="edgeStyle=orthogonalEdgeStyle;rounded=0;orthogonalLoop=1;jettySize=auto;html=1;entryX=0;entryY=0.5;entryDx=0;entryDy=0;" edge="1" parent="1" source="iwvavYF3wBm5tSGnuBTQ-47" target="iwvavYF3wBm5tSGnuBTQ-49">
          <mxGeometry relative="1" as="geometry" />
        </mxCell>
        <mxCell id="iwvavYF3wBm5tSGnuBTQ-47" value="2" style="ellipse;whiteSpace=wrap;html=1;aspect=fixed;fillColor=#a0522d;fontColor=#ffffff;strokeColor=light-dark(#6D1F00, #12006b);" vertex="1" parent="1">
          <mxGeometry x="250" y="800" width="80" height="80" as="geometry" />
        </mxCell>
        <mxCell id="iwvavYF3wBm5tSGnuBTQ-49" value="3" style="ellipse;whiteSpace=wrap;html=1;aspect=fixed;fillColor=#a0522d;fontColor=#ffffff;strokeColor=#6D1F00;" vertex="1" parent="1">
          <mxGeometry x="365" y="800" width="80" height="80" as="geometry" />
        </mxCell>
        <mxCell id="iwvavYF3wBm5tSGnuBTQ-50" style="edgeStyle=orthogonalEdgeStyle;rounded=0;orthogonalLoop=1;jettySize=auto;html=1;entryX=0;entryY=0.5;entryDx=0;entryDy=0;" edge="1" parent="1" source="iwvavYF3wBm5tSGnuBTQ-51" target="iwvavYF3wBm5tSGnuBTQ-53">
          <mxGeometry relative="1" as="geometry" />
        </mxCell>
        <mxCell id="iwvavYF3wBm5tSGnuBTQ-51" value="4" style="ellipse;whiteSpace=wrap;html=1;aspect=fixed;" vertex="1" parent="1">
          <mxGeometry x="480" y="800" width="80" height="80" as="geometry" />
        </mxCell>
        <mxCell id="iwvavYF3wBm5tSGnuBTQ-52" style="edgeStyle=orthogonalEdgeStyle;rounded=0;orthogonalLoop=1;jettySize=auto;html=1;entryX=0;entryY=0.5;entryDx=0;entryDy=0;" edge="1" parent="1" source="iwvavYF3wBm5tSGnuBTQ-53" target="iwvavYF3wBm5tSGnuBTQ-55">
          <mxGeometry relative="1" as="geometry" />
        </mxCell>
        <mxCell id="iwvavYF3wBm5tSGnuBTQ-53" value="5" style="ellipse;whiteSpace=wrap;html=1;aspect=fixed;fillColor=#1ba1e2;fontColor=#ffffff;strokeColor=#006EAF;" vertex="1" parent="1">
          <mxGeometry x="600" y="800" width="80" height="80" as="geometry" />
        </mxCell>
        <mxCell id="iwvavYF3wBm5tSGnuBTQ-54" style="edgeStyle=orthogonalEdgeStyle;rounded=0;orthogonalLoop=1;jettySize=auto;html=1;" edge="1" parent="1" source="iwvavYF3wBm5tSGnuBTQ-55" target="iwvavYF3wBm5tSGnuBTQ-57">
          <mxGeometry relative="1" as="geometry" />
        </mxCell>
        <mxCell id="iwvavYF3wBm5tSGnuBTQ-55" value="6" style="ellipse;whiteSpace=wrap;html=1;aspect=fixed;" vertex="1" parent="1">
          <mxGeometry x="720" y="800" width="80" height="80" as="geometry" />
        </mxCell>
        <mxCell id="iwvavYF3wBm5tSGnuBTQ-57" value="None" style="ellipse;whiteSpace=wrap;html=1;aspect=fixed;" vertex="1" parent="1">
          <mxGeometry x="850" y="800" width="80" height="80" as="geometry" />
        </mxCell>
        <mxCell id="iwvavYF3wBm5tSGnuBTQ-58" style="edgeStyle=orthogonalEdgeStyle;rounded=0;orthogonalLoop=1;jettySize=auto;html=1;" edge="1" parent="1" source="iwvavYF3wBm5tSGnuBTQ-59" target="iwvavYF3wBm5tSGnuBTQ-45">
          <mxGeometry relative="1" as="geometry" />
        </mxCell>
        <mxCell id="iwvavYF3wBm5tSGnuBTQ-59" value="D" style="ellipse;whiteSpace=wrap;html=1;aspect=fixed;fillColor=#a20025;fontColor=#ffffff;strokeColor=#6F0000;" vertex="1" parent="1">
          <mxGeometry y="800" width="80" height="80" as="geometry" />
        </mxCell>
        <mxCell id="iwvavYF3wBm5tSGnuBTQ-60" value="head" style="text;html=1;align=center;verticalAlign=middle;whiteSpace=wrap;rounded=0;" vertex="1" parent="1">
          <mxGeometry x="140" y="760" width="60" height="30" as="geometry" />
        </mxCell>
        <mxCell id="iwvavYF3wBm5tSGnuBTQ-62" value="rìght.next.prev" style="rounded=0;whiteSpace=wrap;html=1;" vertex="1" parent="1">
          <mxGeometry x="420" y="890" width="100" height="50" as="geometry" />
        </mxCell>
        <mxCell id="iwvavYF3wBm5tSGnuBTQ-67" value="mid" style="rounded=0;whiteSpace=wrap;html=1;" vertex="1" parent="1">
          <mxGeometry x="265" y="890" width="50" height="50" as="geometry" />
        </mxCell>
        <mxCell id="iwvavYF3wBm5tSGnuBTQ-68" value="" style="endArrow=classic;html=1;rounded=0;exitX=0;exitY=1;exitDx=0;exitDy=0;entryX=1;entryY=1;entryDx=0;entryDy=0;fillColor=#a0522d;strokeColor=#6D1F00;" edge="1" parent="1" source="iwvavYF3wBm5tSGnuBTQ-51" target="iwvavYF3wBm5tSGnuBTQ-49">
          <mxGeometry width="50" height="50" relative="1" as="geometry">
            <mxPoint x="460" y="770" as="sourcePoint" />
            <mxPoint x="510" y="720" as="targetPoint" />
          </mxGeometry>
        </mxCell>
        <mxCell id="iwvavYF3wBm5tSGnuBTQ-69" value="" style="endArrow=classic;html=1;rounded=0;exitX=1;exitY=0;exitDx=0;exitDy=0;entryX=0;entryY=0;entryDx=0;entryDy=0;" edge="1" parent="1" source="iwvavYF3wBm5tSGnuBTQ-49" target="iwvavYF3wBm5tSGnuBTQ-51">
          <mxGeometry width="50" height="50" relative="1" as="geometry">
            <mxPoint x="549" y="730" as="sourcePoint" />
            <mxPoint x="490" y="730" as="targetPoint" />
          </mxGeometry>
        </mxCell>
        <mxCell id="iwvavYF3wBm5tSGnuBTQ-71" value="&lt;h1 style=&quot;margin-top: 0px;&quot;&gt;Gỡ to_move&lt;/h1&gt;&lt;p&gt;removed.next = to_move.next&lt;/p&gt;&lt;p&gt;to_move.next.prev = removed&lt;/p&gt;" style="text;html=1;whiteSpace=wrap;overflow=hidden;rounded=0;" vertex="1" parent="1">
          <mxGeometry y="350" width="180" height="120" as="geometry" />
        </mxCell>
        <mxCell id="iwvavYF3wBm5tSGnuBTQ-72" value="" style="edgeStyle=orthogonalEdgeStyle;rounded=0;orthogonalLoop=1;jettySize=auto;html=1;entryX=0;entryY=0;entryDx=0;entryDy=0;exitX=1;exitY=0;exitDx=0;exitDy=0;" edge="1" parent="1" source="iwvavYF3wBm5tSGnuBTQ-73" target="iwvavYF3wBm5tSGnuBTQ-75">
          <mxGeometry relative="1" as="geometry" />
        </mxCell>
        <mxCell id="iwvavYF3wBm5tSGnuBTQ-101" value="next" style="edgeLabel;html=1;align=center;verticalAlign=middle;resizable=0;points=[];" vertex="1" connectable="0" parent="iwvavYF3wBm5tSGnuBTQ-72">
          <mxGeometry x="-0.2337" y="-4" relative="1" as="geometry">
            <mxPoint as="offset" />
          </mxGeometry>
        </mxCell>
        <mxCell id="iwvavYF3wBm5tSGnuBTQ-73" value="1" style="ellipse;whiteSpace=wrap;html=1;aspect=fixed;" vertex="1" parent="1">
          <mxGeometry x="130" y="1340" width="80" height="80" as="geometry" />
        </mxCell>
        <mxCell id="iwvavYF3wBm5tSGnuBTQ-74" style="edgeStyle=orthogonalEdgeStyle;rounded=0;orthogonalLoop=1;jettySize=auto;html=1;entryX=0;entryY=0;entryDx=0;entryDy=0;exitX=1;exitY=0;exitDx=0;exitDy=0;" edge="1" parent="1" source="iwvavYF3wBm5tSGnuBTQ-75" target="iwvavYF3wBm5tSGnuBTQ-79">
          <mxGeometry relative="1" as="geometry">
            <mxPoint x="365" y="1380" as="targetPoint" />
          </mxGeometry>
        </mxCell>
        <mxCell id="iwvavYF3wBm5tSGnuBTQ-75" value="2" style="ellipse;whiteSpace=wrap;html=1;aspect=fixed;fillColor=#a0522d;fontColor=#ffffff;strokeColor=#6D1F00;" vertex="1" parent="1">
          <mxGeometry x="250" y="1340" width="80" height="80" as="geometry" />
        </mxCell>
        <mxCell id="iwvavYF3wBm5tSGnuBTQ-78" style="edgeStyle=orthogonalEdgeStyle;rounded=0;orthogonalLoop=1;jettySize=auto;html=1;entryX=0;entryY=0;entryDx=0;entryDy=0;exitX=1;exitY=0;exitDx=0;exitDy=0;" edge="1" parent="1" source="iwvavYF3wBm5tSGnuBTQ-79" target="iwvavYF3wBm5tSGnuBTQ-81">
          <mxGeometry relative="1" as="geometry" />
        </mxCell>
        <mxCell id="iwvavYF3wBm5tSGnuBTQ-79" value="4" style="ellipse;whiteSpace=wrap;html=1;aspect=fixed;" vertex="1" parent="1">
          <mxGeometry x="380" y="1340" width="80" height="80" as="geometry" />
        </mxCell>
        <mxCell id="iwvavYF3wBm5tSGnuBTQ-80" style="edgeStyle=orthogonalEdgeStyle;rounded=0;orthogonalLoop=1;jettySize=auto;html=1;entryX=0;entryY=0;entryDx=0;entryDy=0;exitX=1;exitY=0;exitDx=0;exitDy=0;" edge="1" parent="1" source="iwvavYF3wBm5tSGnuBTQ-81" target="iwvavYF3wBm5tSGnuBTQ-83">
          <mxGeometry relative="1" as="geometry" />
        </mxCell>
        <mxCell id="iwvavYF3wBm5tSGnuBTQ-81" value="5" style="ellipse;whiteSpace=wrap;html=1;aspect=fixed;fillColor=#1ba1e2;fontColor=#ffffff;strokeColor=#006EAF;" vertex="1" parent="1">
          <mxGeometry x="500" y="1340" width="80" height="80" as="geometry" />
        </mxCell>
        <mxCell id="iwvavYF3wBm5tSGnuBTQ-82" style="edgeStyle=orthogonalEdgeStyle;rounded=0;orthogonalLoop=1;jettySize=auto;html=1;" edge="1" parent="1" source="iwvavYF3wBm5tSGnuBTQ-83" target="iwvavYF3wBm5tSGnuBTQ-85">
          <mxGeometry relative="1" as="geometry" />
        </mxCell>
        <mxCell id="iwvavYF3wBm5tSGnuBTQ-83" value="6" style="ellipse;whiteSpace=wrap;html=1;aspect=fixed;" vertex="1" parent="1">
          <mxGeometry x="620" y="1340" width="80" height="80" as="geometry" />
        </mxCell>
        <mxCell id="iwvavYF3wBm5tSGnuBTQ-84" value="left" style="rounded=0;whiteSpace=wrap;html=1;" vertex="1" parent="1">
          <mxGeometry x="145" y="1430" width="50" height="50" as="geometry" />
        </mxCell>
        <mxCell id="iwvavYF3wBm5tSGnuBTQ-85" value="None" style="ellipse;whiteSpace=wrap;html=1;aspect=fixed;" vertex="1" parent="1">
          <mxGeometry x="750" y="1340" width="80" height="80" as="geometry" />
        </mxCell>
        <mxCell id="iwvavYF3wBm5tSGnuBTQ-86" style="edgeStyle=orthogonalEdgeStyle;rounded=0;orthogonalLoop=1;jettySize=auto;html=1;exitX=1;exitY=0;exitDx=0;exitDy=0;entryX=0;entryY=0;entryDx=0;entryDy=0;" edge="1" parent="1" source="iwvavYF3wBm5tSGnuBTQ-87" target="iwvavYF3wBm5tSGnuBTQ-73">
          <mxGeometry relative="1" as="geometry" />
        </mxCell>
        <mxCell id="iwvavYF3wBm5tSGnuBTQ-87" value="D" style="ellipse;whiteSpace=wrap;html=1;aspect=fixed;fillColor=#a20025;fontColor=#ffffff;strokeColor=#6F0000;" vertex="1" parent="1">
          <mxGeometry y="1340" width="80" height="80" as="geometry" />
        </mxCell>
        <mxCell id="iwvavYF3wBm5tSGnuBTQ-88" value="mid" style="rounded=0;whiteSpace=wrap;html=1;" vertex="1" parent="1">
          <mxGeometry x="265" y="1430" width="50" height="50" as="geometry" />
        </mxCell>
        <mxCell id="iwvavYF3wBm5tSGnuBTQ-90" value="&lt;h1 style=&quot;margin-top: 0px;&quot;&gt;Chèn to_move sau left&lt;/h1&gt;" style="text;html=1;whiteSpace=wrap;overflow=hidden;rounded=0;" vertex="1" parent="1">
          <mxGeometry x="10" y="1130" width="280" height="40" as="geometry" />
        </mxCell>
        <mxCell id="iwvavYF3wBm5tSGnuBTQ-99" style="edgeStyle=orthogonalEdgeStyle;rounded=0;orthogonalLoop=1;jettySize=auto;html=1;entryX=0.5;entryY=0;entryDx=0;entryDy=0;fillColor=#fa6800;strokeColor=#C73500;" edge="1" parent="1" source="iwvavYF3wBm5tSGnuBTQ-91" target="iwvavYF3wBm5tSGnuBTQ-75">
          <mxGeometry relative="1" as="geometry" />
        </mxCell>
        <mxCell id="iwvavYF3wBm5tSGnuBTQ-100" value="next" style="edgeLabel;html=1;align=center;verticalAlign=middle;resizable=0;points=[];" vertex="1" connectable="0" parent="iwvavYF3wBm5tSGnuBTQ-99">
          <mxGeometry x="-0.5287" y="2" relative="1" as="geometry">
            <mxPoint as="offset" />
          </mxGeometry>
        </mxCell>
        <mxCell id="iwvavYF3wBm5tSGnuBTQ-91" value="3" style="ellipse;whiteSpace=wrap;html=1;aspect=fixed;" vertex="1" parent="1">
          <mxGeometry x="385" y="1230" width="80" height="80" as="geometry" />
        </mxCell>
        <mxCell id="iwvavYF3wBm5tSGnuBTQ-92" value="right" style="rounded=0;whiteSpace=wrap;html=1;" vertex="1" parent="1">
          <mxGeometry x="400" y="1170" width="50" height="50" as="geometry" />
        </mxCell>
        <mxCell id="iwvavYF3wBm5tSGnuBTQ-94" value="" style="endArrow=classic;html=1;rounded=0;entryX=1;entryY=1;entryDx=0;entryDy=0;exitX=0;exitY=1;exitDx=0;exitDy=0;" edge="1" parent="1" source="iwvavYF3wBm5tSGnuBTQ-73" target="iwvavYF3wBm5tSGnuBTQ-87">
          <mxGeometry width="50" height="50" relative="1" as="geometry">
            <mxPoint x="310" y="1390" as="sourcePoint" />
            <mxPoint x="360" y="1340" as="targetPoint" />
          </mxGeometry>
        </mxCell>
        <mxCell id="iwvavYF3wBm5tSGnuBTQ-95" value="" style="endArrow=classic;html=1;rounded=0;entryX=1;entryY=1;entryDx=0;entryDy=0;exitX=0;exitY=1;exitDx=0;exitDy=0;" edge="1" parent="1" source="iwvavYF3wBm5tSGnuBTQ-75" target="iwvavYF3wBm5tSGnuBTQ-73">
          <mxGeometry width="50" height="50" relative="1" as="geometry">
            <mxPoint x="310" y="1390" as="sourcePoint" />
            <mxPoint x="360" y="1340" as="targetPoint" />
          </mxGeometry>
        </mxCell>
        <mxCell id="iwvavYF3wBm5tSGnuBTQ-96" value="" style="endArrow=classic;html=1;rounded=0;entryX=1;entryY=1;entryDx=0;entryDy=0;exitX=0;exitY=1;exitDx=0;exitDy=0;" edge="1" parent="1" source="iwvavYF3wBm5tSGnuBTQ-79" target="iwvavYF3wBm5tSGnuBTQ-75">
          <mxGeometry width="50" height="50" relative="1" as="geometry">
            <mxPoint x="310" y="1390" as="sourcePoint" />
            <mxPoint x="360" y="1340" as="targetPoint" />
          </mxGeometry>
        </mxCell>
        <mxCell id="iwvavYF3wBm5tSGnuBTQ-97" value="" style="endArrow=classic;html=1;rounded=0;entryX=1;entryY=1;entryDx=0;entryDy=0;exitX=0;exitY=1;exitDx=0;exitDy=0;" edge="1" parent="1" source="iwvavYF3wBm5tSGnuBTQ-81" target="iwvavYF3wBm5tSGnuBTQ-79">
          <mxGeometry width="50" height="50" relative="1" as="geometry">
            <mxPoint x="310" y="1390" as="sourcePoint" />
            <mxPoint x="360" y="1340" as="targetPoint" />
          </mxGeometry>
        </mxCell>
        <mxCell id="iwvavYF3wBm5tSGnuBTQ-98" value="" style="endArrow=classic;html=1;rounded=0;entryX=1;entryY=1;entryDx=0;entryDy=0;exitX=0;exitY=1;exitDx=0;exitDy=0;" edge="1" parent="1" source="iwvavYF3wBm5tSGnuBTQ-83" target="iwvavYF3wBm5tSGnuBTQ-81">
          <mxGeometry width="50" height="50" relative="1" as="geometry">
            <mxPoint x="560" y="1380" as="sourcePoint" />
            <mxPoint x="610" y="1330" as="targetPoint" />
          </mxGeometry>
        </mxCell>
        <mxCell id="iwvavYF3wBm5tSGnuBTQ-103" value="" style="edgeStyle=orthogonalEdgeStyle;rounded=0;orthogonalLoop=1;jettySize=auto;html=1;entryX=0;entryY=0;entryDx=0;entryDy=0;exitX=1;exitY=0;exitDx=0;exitDy=0;" edge="1" parent="1" source="iwvavYF3wBm5tSGnuBTQ-105" target="iwvavYF3wBm5tSGnuBTQ-107">
          <mxGeometry relative="1" as="geometry" />
        </mxCell>
        <mxCell id="iwvavYF3wBm5tSGnuBTQ-104" value="next" style="edgeLabel;html=1;align=center;verticalAlign=middle;resizable=0;points=[];" vertex="1" connectable="0" parent="iwvavYF3wBm5tSGnuBTQ-103">
          <mxGeometry x="-0.2337" y="-4" relative="1" as="geometry">
            <mxPoint as="offset" />
          </mxGeometry>
        </mxCell>
        <mxCell id="iwvavYF3wBm5tSGnuBTQ-105" value="1" style="ellipse;whiteSpace=wrap;html=1;aspect=fixed;" vertex="1" parent="1">
          <mxGeometry x="130" y="1740" width="80" height="80" as="geometry" />
        </mxCell>
        <mxCell id="iwvavYF3wBm5tSGnuBTQ-106" style="edgeStyle=orthogonalEdgeStyle;rounded=0;orthogonalLoop=1;jettySize=auto;html=1;entryX=0;entryY=0;entryDx=0;entryDy=0;exitX=1;exitY=0;exitDx=0;exitDy=0;" edge="1" parent="1" source="iwvavYF3wBm5tSGnuBTQ-107" target="iwvavYF3wBm5tSGnuBTQ-109">
          <mxGeometry relative="1" as="geometry">
            <mxPoint x="365" y="1780" as="targetPoint" />
          </mxGeometry>
        </mxCell>
        <mxCell id="iwvavYF3wBm5tSGnuBTQ-107" value="2" style="ellipse;whiteSpace=wrap;html=1;aspect=fixed;fillColor=#1ba1e2;fontColor=#ffffff;strokeColor=#006EAF;" vertex="1" parent="1">
          <mxGeometry x="250" y="1740" width="80" height="80" as="geometry" />
        </mxCell>
        <mxCell id="iwvavYF3wBm5tSGnuBTQ-108" style="edgeStyle=orthogonalEdgeStyle;rounded=0;orthogonalLoop=1;jettySize=auto;html=1;entryX=0;entryY=0;entryDx=0;entryDy=0;exitX=1;exitY=0;exitDx=0;exitDy=0;" edge="1" parent="1" source="iwvavYF3wBm5tSGnuBTQ-109" target="iwvavYF3wBm5tSGnuBTQ-111">
          <mxGeometry relative="1" as="geometry" />
        </mxCell>
        <mxCell id="iwvavYF3wBm5tSGnuBTQ-109" value="4" style="ellipse;whiteSpace=wrap;html=1;aspect=fixed;" vertex="1" parent="1">
          <mxGeometry x="380" y="1740" width="80" height="80" as="geometry" />
        </mxCell>
        <mxCell id="iwvavYF3wBm5tSGnuBTQ-110" style="edgeStyle=orthogonalEdgeStyle;rounded=0;orthogonalLoop=1;jettySize=auto;html=1;entryX=0;entryY=0;entryDx=0;entryDy=0;exitX=1;exitY=0;exitDx=0;exitDy=0;" edge="1" parent="1" source="iwvavYF3wBm5tSGnuBTQ-111" target="iwvavYF3wBm5tSGnuBTQ-113">
          <mxGeometry relative="1" as="geometry" />
        </mxCell>
        <mxCell id="iwvavYF3wBm5tSGnuBTQ-111" value="5" style="ellipse;whiteSpace=wrap;html=1;aspect=fixed;fillColor=#1ba1e2;fontColor=#ffffff;strokeColor=#006EAF;" vertex="1" parent="1">
          <mxGeometry x="500" y="1740" width="80" height="80" as="geometry" />
        </mxCell>
        <mxCell id="iwvavYF3wBm5tSGnuBTQ-112" style="edgeStyle=orthogonalEdgeStyle;rounded=0;orthogonalLoop=1;jettySize=auto;html=1;" edge="1" parent="1" source="iwvavYF3wBm5tSGnuBTQ-113" target="iwvavYF3wBm5tSGnuBTQ-115">
          <mxGeometry relative="1" as="geometry" />
        </mxCell>
        <mxCell id="iwvavYF3wBm5tSGnuBTQ-113" value="6" style="ellipse;whiteSpace=wrap;html=1;aspect=fixed;" vertex="1" parent="1">
          <mxGeometry x="620" y="1740" width="80" height="80" as="geometry" />
        </mxCell>
        <mxCell id="iwvavYF3wBm5tSGnuBTQ-114" value="left" style="rounded=0;whiteSpace=wrap;html=1;" vertex="1" parent="1">
          <mxGeometry x="145" y="1830" width="50" height="50" as="geometry" />
        </mxCell>
        <mxCell id="iwvavYF3wBm5tSGnuBTQ-115" value="None" style="ellipse;whiteSpace=wrap;html=1;aspect=fixed;" vertex="1" parent="1">
          <mxGeometry x="750" y="1740" width="80" height="80" as="geometry" />
        </mxCell>
        <mxCell id="iwvavYF3wBm5tSGnuBTQ-116" style="edgeStyle=orthogonalEdgeStyle;rounded=0;orthogonalLoop=1;jettySize=auto;html=1;exitX=1;exitY=0;exitDx=0;exitDy=0;entryX=0;entryY=0;entryDx=0;entryDy=0;" edge="1" parent="1" source="iwvavYF3wBm5tSGnuBTQ-117" target="iwvavYF3wBm5tSGnuBTQ-105">
          <mxGeometry relative="1" as="geometry" />
        </mxCell>
        <mxCell id="iwvavYF3wBm5tSGnuBTQ-117" value="D" style="ellipse;whiteSpace=wrap;html=1;aspect=fixed;fillColor=#a20025;fontColor=#ffffff;strokeColor=#6F0000;" vertex="1" parent="1">
          <mxGeometry y="1740" width="80" height="80" as="geometry" />
        </mxCell>
        <mxCell id="iwvavYF3wBm5tSGnuBTQ-118" value="mid" style="rounded=0;whiteSpace=wrap;html=1;" vertex="1" parent="1">
          <mxGeometry x="265" y="1830" width="50" height="50" as="geometry" />
        </mxCell>
        <mxCell id="iwvavYF3wBm5tSGnuBTQ-121" value="3" style="ellipse;whiteSpace=wrap;html=1;aspect=fixed;fillColor=#a0522d;fontColor=#ffffff;strokeColor=#6D1F00;" vertex="1" parent="1">
          <mxGeometry x="385" y="1630" width="80" height="80" as="geometry" />
        </mxCell>
        <mxCell id="iwvavYF3wBm5tSGnuBTQ-122" value="right" style="rounded=0;whiteSpace=wrap;html=1;" vertex="1" parent="1">
          <mxGeometry x="400" y="1570" width="50" height="50" as="geometry" />
        </mxCell>
        <mxCell id="iwvavYF3wBm5tSGnuBTQ-123" value="" style="endArrow=classic;html=1;rounded=0;entryX=1;entryY=1;entryDx=0;entryDy=0;exitX=0;exitY=1;exitDx=0;exitDy=0;" edge="1" parent="1" source="iwvavYF3wBm5tSGnuBTQ-105" target="iwvavYF3wBm5tSGnuBTQ-117">
          <mxGeometry width="50" height="50" relative="1" as="geometry">
            <mxPoint x="310" y="1790" as="sourcePoint" />
            <mxPoint x="360" y="1740" as="targetPoint" />
          </mxGeometry>
        </mxCell>
        <mxCell id="iwvavYF3wBm5tSGnuBTQ-124" value="" style="endArrow=classic;html=1;rounded=0;entryX=1;entryY=1;entryDx=0;entryDy=0;exitX=0;exitY=1;exitDx=0;exitDy=0;fillColor=#fa6800;strokeColor=#C73500;" edge="1" parent="1" source="iwvavYF3wBm5tSGnuBTQ-107" target="iwvavYF3wBm5tSGnuBTQ-105">
          <mxGeometry width="50" height="50" relative="1" as="geometry">
            <mxPoint x="310" y="1790" as="sourcePoint" />
            <mxPoint x="360" y="1740" as="targetPoint" />
          </mxGeometry>
        </mxCell>
        <mxCell id="iwvavYF3wBm5tSGnuBTQ-128" value="prev" style="edgeLabel;html=1;align=center;verticalAlign=middle;resizable=0;points=[];" vertex="1" connectable="0" parent="iwvavYF3wBm5tSGnuBTQ-124">
          <mxGeometry x="0.1595" y="1" relative="1" as="geometry">
            <mxPoint as="offset" />
          </mxGeometry>
        </mxCell>
        <mxCell id="iwvavYF3wBm5tSGnuBTQ-125" value="" style="endArrow=classic;html=1;rounded=0;entryX=1;entryY=1;entryDx=0;entryDy=0;exitX=0;exitY=1;exitDx=0;exitDy=0;" edge="1" parent="1" source="iwvavYF3wBm5tSGnuBTQ-109" target="iwvavYF3wBm5tSGnuBTQ-107">
          <mxGeometry width="50" height="50" relative="1" as="geometry">
            <mxPoint x="310" y="1790" as="sourcePoint" />
            <mxPoint x="360" y="1740" as="targetPoint" />
          </mxGeometry>
        </mxCell>
        <mxCell id="iwvavYF3wBm5tSGnuBTQ-126" value="" style="endArrow=classic;html=1;rounded=0;entryX=1;entryY=1;entryDx=0;entryDy=0;exitX=0;exitY=1;exitDx=0;exitDy=0;" edge="1" parent="1" source="iwvavYF3wBm5tSGnuBTQ-111" target="iwvavYF3wBm5tSGnuBTQ-109">
          <mxGeometry width="50" height="50" relative="1" as="geometry">
            <mxPoint x="310" y="1790" as="sourcePoint" />
            <mxPoint x="360" y="1740" as="targetPoint" />
          </mxGeometry>
        </mxCell>
        <mxCell id="iwvavYF3wBm5tSGnuBTQ-127" value="" style="endArrow=classic;html=1;rounded=0;entryX=1;entryY=1;entryDx=0;entryDy=0;exitX=0;exitY=1;exitDx=0;exitDy=0;" edge="1" parent="1" source="iwvavYF3wBm5tSGnuBTQ-113" target="iwvavYF3wBm5tSGnuBTQ-111">
          <mxGeometry width="50" height="50" relative="1" as="geometry">
            <mxPoint x="560" y="1780" as="sourcePoint" />
            <mxPoint x="610" y="1730" as="targetPoint" />
          </mxGeometry>
        </mxCell>
        <mxCell id="iwvavYF3wBm5tSGnuBTQ-130" value="left.next.prev&lt;br&gt;=&amp;nbsp;&lt;div&gt;right&lt;/div&gt;" style="rounded=0;whiteSpace=wrap;html=1;" vertex="1" parent="1">
          <mxGeometry x="10" y="1640" width="110" height="50" as="geometry" />
        </mxCell>
        <mxCell id="iwvavYF3wBm5tSGnuBTQ-134" value="" style="edgeStyle=orthogonalEdgeStyle;rounded=0;orthogonalLoop=1;jettySize=auto;html=1;entryX=0;entryY=0;entryDx=0;entryDy=0;exitX=1;exitY=0;exitDx=0;exitDy=0;fillColor=#a0522d;strokeColor=#6D1F00;" edge="1" parent="1" source="iwvavYF3wBm5tSGnuBTQ-136" target="iwvavYF3wBm5tSGnuBTQ-138">
          <mxGeometry relative="1" as="geometry" />
        </mxCell>
        <mxCell id="iwvavYF3wBm5tSGnuBTQ-135" value="next" style="edgeLabel;html=1;align=center;verticalAlign=middle;resizable=0;points=[];" vertex="1" connectable="0" parent="iwvavYF3wBm5tSGnuBTQ-134">
          <mxGeometry x="-0.2337" y="-4" relative="1" as="geometry">
            <mxPoint as="offset" />
          </mxGeometry>
        </mxCell>
        <mxCell id="iwvavYF3wBm5tSGnuBTQ-136" value="1" style="ellipse;whiteSpace=wrap;html=1;aspect=fixed;" vertex="1" parent="1">
          <mxGeometry x="130" y="2130" width="80" height="80" as="geometry" />
        </mxCell>
        <mxCell id="iwvavYF3wBm5tSGnuBTQ-137" style="edgeStyle=orthogonalEdgeStyle;rounded=0;orthogonalLoop=1;jettySize=auto;html=1;entryX=0;entryY=0;entryDx=0;entryDy=0;exitX=1;exitY=0;exitDx=0;exitDy=0;" edge="1" parent="1" source="iwvavYF3wBm5tSGnuBTQ-138" target="iwvavYF3wBm5tSGnuBTQ-140">
          <mxGeometry relative="1" as="geometry">
            <mxPoint x="365" y="2170" as="targetPoint" />
          </mxGeometry>
        </mxCell>
        <mxCell id="iwvavYF3wBm5tSGnuBTQ-138" value="2" style="ellipse;whiteSpace=wrap;html=1;aspect=fixed;fillColor=#1ba1e2;fontColor=#ffffff;strokeColor=#006EAF;" vertex="1" parent="1">
          <mxGeometry x="250" y="2130" width="80" height="80" as="geometry" />
        </mxCell>
        <mxCell id="iwvavYF3wBm5tSGnuBTQ-139" style="edgeStyle=orthogonalEdgeStyle;rounded=0;orthogonalLoop=1;jettySize=auto;html=1;entryX=0;entryY=0;entryDx=0;entryDy=0;exitX=1;exitY=0;exitDx=0;exitDy=0;" edge="1" parent="1" source="iwvavYF3wBm5tSGnuBTQ-140" target="iwvavYF3wBm5tSGnuBTQ-142">
          <mxGeometry relative="1" as="geometry" />
        </mxCell>
        <mxCell id="iwvavYF3wBm5tSGnuBTQ-140" value="4" style="ellipse;whiteSpace=wrap;html=1;aspect=fixed;" vertex="1" parent="1">
          <mxGeometry x="380" y="2130" width="80" height="80" as="geometry" />
        </mxCell>
        <mxCell id="iwvavYF3wBm5tSGnuBTQ-141" style="edgeStyle=orthogonalEdgeStyle;rounded=0;orthogonalLoop=1;jettySize=auto;html=1;entryX=0;entryY=0;entryDx=0;entryDy=0;exitX=1;exitY=0;exitDx=0;exitDy=0;" edge="1" parent="1" source="iwvavYF3wBm5tSGnuBTQ-142" target="iwvavYF3wBm5tSGnuBTQ-144">
          <mxGeometry relative="1" as="geometry" />
        </mxCell>
        <mxCell id="iwvavYF3wBm5tSGnuBTQ-142" value="5" style="ellipse;whiteSpace=wrap;html=1;aspect=fixed;fillColor=#1ba1e2;fontColor=#ffffff;strokeColor=#006EAF;" vertex="1" parent="1">
          <mxGeometry x="500" y="2130" width="80" height="80" as="geometry" />
        </mxCell>
        <mxCell id="iwvavYF3wBm5tSGnuBTQ-143" style="edgeStyle=orthogonalEdgeStyle;rounded=0;orthogonalLoop=1;jettySize=auto;html=1;" edge="1" parent="1" source="iwvavYF3wBm5tSGnuBTQ-144" target="iwvavYF3wBm5tSGnuBTQ-146">
          <mxGeometry relative="1" as="geometry" />
        </mxCell>
        <mxCell id="iwvavYF3wBm5tSGnuBTQ-144" value="6" style="ellipse;whiteSpace=wrap;html=1;aspect=fixed;" vertex="1" parent="1">
          <mxGeometry x="620" y="2130" width="80" height="80" as="geometry" />
        </mxCell>
        <mxCell id="iwvavYF3wBm5tSGnuBTQ-145" value="left" style="rounded=0;whiteSpace=wrap;html=1;" vertex="1" parent="1">
          <mxGeometry x="145" y="2220" width="50" height="50" as="geometry" />
        </mxCell>
        <mxCell id="iwvavYF3wBm5tSGnuBTQ-146" value="None" style="ellipse;whiteSpace=wrap;html=1;aspect=fixed;" vertex="1" parent="1">
          <mxGeometry x="750" y="2130" width="80" height="80" as="geometry" />
        </mxCell>
        <mxCell id="iwvavYF3wBm5tSGnuBTQ-147" style="edgeStyle=orthogonalEdgeStyle;rounded=0;orthogonalLoop=1;jettySize=auto;html=1;exitX=1;exitY=0;exitDx=0;exitDy=0;entryX=0;entryY=0;entryDx=0;entryDy=0;" edge="1" parent="1" source="iwvavYF3wBm5tSGnuBTQ-148" target="iwvavYF3wBm5tSGnuBTQ-136">
          <mxGeometry relative="1" as="geometry" />
        </mxCell>
        <mxCell id="iwvavYF3wBm5tSGnuBTQ-148" value="D" style="ellipse;whiteSpace=wrap;html=1;aspect=fixed;fillColor=#a20025;fontColor=#ffffff;strokeColor=#6F0000;" vertex="1" parent="1">
          <mxGeometry y="2130" width="80" height="80" as="geometry" />
        </mxCell>
        <mxCell id="iwvavYF3wBm5tSGnuBTQ-149" value="removed" style="rounded=0;whiteSpace=wrap;html=1;" vertex="1" parent="1">
          <mxGeometry x="265" y="2220" width="50" height="50" as="geometry" />
        </mxCell>
        <mxCell id="iwvavYF3wBm5tSGnuBTQ-150" value="3" style="ellipse;whiteSpace=wrap;html=1;aspect=fixed;fillColor=#a0522d;fontColor=#ffffff;strokeColor=#6D1F00;" vertex="1" parent="1">
          <mxGeometry x="385" y="2020" width="80" height="80" as="geometry" />
        </mxCell>
        <mxCell id="iwvavYF3wBm5tSGnuBTQ-151" value="to_move" style="rounded=0;whiteSpace=wrap;html=1;" vertex="1" parent="1">
          <mxGeometry x="400" y="1960" width="50" height="50" as="geometry" />
        </mxCell>
        <mxCell id="iwvavYF3wBm5tSGnuBTQ-152" value="" style="endArrow=classic;html=1;rounded=0;entryX=1;entryY=1;entryDx=0;entryDy=0;exitX=0;exitY=1;exitDx=0;exitDy=0;" edge="1" parent="1" source="iwvavYF3wBm5tSGnuBTQ-136" target="iwvavYF3wBm5tSGnuBTQ-148">
          <mxGeometry width="50" height="50" relative="1" as="geometry">
            <mxPoint x="310" y="2180" as="sourcePoint" />
            <mxPoint x="360" y="2130" as="targetPoint" />
          </mxGeometry>
        </mxCell>
        <mxCell id="iwvavYF3wBm5tSGnuBTQ-153" value="" style="endArrow=classic;html=1;rounded=0;entryX=1;entryY=1;entryDx=0;entryDy=0;exitX=0;exitY=1;exitDx=0;exitDy=0;" edge="1" parent="1" source="iwvavYF3wBm5tSGnuBTQ-138" target="iwvavYF3wBm5tSGnuBTQ-136">
          <mxGeometry width="50" height="50" relative="1" as="geometry">
            <mxPoint x="310" y="2180" as="sourcePoint" />
            <mxPoint x="360" y="2130" as="targetPoint" />
          </mxGeometry>
        </mxCell>
        <mxCell id="iwvavYF3wBm5tSGnuBTQ-154" value="prev" style="edgeLabel;html=1;align=center;verticalAlign=middle;resizable=0;points=[];" vertex="1" connectable="0" parent="iwvavYF3wBm5tSGnuBTQ-153">
          <mxGeometry x="0.1595" y="1" relative="1" as="geometry">
            <mxPoint as="offset" />
          </mxGeometry>
        </mxCell>
        <mxCell id="iwvavYF3wBm5tSGnuBTQ-155" value="" style="endArrow=classic;html=1;rounded=0;entryX=1;entryY=1;entryDx=0;entryDy=0;exitX=0;exitY=1;exitDx=0;exitDy=0;" edge="1" parent="1" source="iwvavYF3wBm5tSGnuBTQ-140" target="iwvavYF3wBm5tSGnuBTQ-138">
          <mxGeometry width="50" height="50" relative="1" as="geometry">
            <mxPoint x="310" y="2180" as="sourcePoint" />
            <mxPoint x="360" y="2130" as="targetPoint" />
          </mxGeometry>
        </mxCell>
        <mxCell id="iwvavYF3wBm5tSGnuBTQ-156" value="" style="endArrow=classic;html=1;rounded=0;entryX=1;entryY=1;entryDx=0;entryDy=0;exitX=0;exitY=1;exitDx=0;exitDy=0;" edge="1" parent="1" source="iwvavYF3wBm5tSGnuBTQ-142" target="iwvavYF3wBm5tSGnuBTQ-140">
          <mxGeometry width="50" height="50" relative="1" as="geometry">
            <mxPoint x="310" y="2180" as="sourcePoint" />
            <mxPoint x="360" y="2130" as="targetPoint" />
          </mxGeometry>
        </mxCell>
        <mxCell id="iwvavYF3wBm5tSGnuBTQ-157" value="" style="endArrow=classic;html=1;rounded=0;entryX=1;entryY=1;entryDx=0;entryDy=0;exitX=0;exitY=1;exitDx=0;exitDy=0;" edge="1" parent="1" source="iwvavYF3wBm5tSGnuBTQ-144" target="iwvavYF3wBm5tSGnuBTQ-142">
          <mxGeometry width="50" height="50" relative="1" as="geometry">
            <mxPoint x="560" y="2170" as="sourcePoint" />
            <mxPoint x="610" y="2120" as="targetPoint" />
          </mxGeometry>
        </mxCell>
        <mxCell id="iwvavYF3wBm5tSGnuBTQ-158" value="left.next = to_move" style="rounded=0;whiteSpace=wrap;html=1;" vertex="1" parent="1">
          <mxGeometry x="10" y="2030" width="110" height="50" as="geometry" />
        </mxCell>
        <mxCell id="iwvavYF3wBm5tSGnuBTQ-160" value="right.next = left.next" style="rounded=0;whiteSpace=wrap;html=1;" vertex="1" parent="1">
          <mxGeometry x="15" y="1240" width="155" height="50" as="geometry" />
        </mxCell>
        <mxCell id="iwvavYF3wBm5tSGnuBTQ-161" value="" style="edgeStyle=orthogonalEdgeStyle;rounded=0;orthogonalLoop=1;jettySize=auto;html=1;entryX=0;entryY=0;entryDx=0;entryDy=0;exitX=1;exitY=0;exitDx=0;exitDy=0;fillColor=#a0522d;strokeColor=#6D1F00;" edge="1" parent="1" source="iwvavYF3wBm5tSGnuBTQ-163" target="iwvavYF3wBm5tSGnuBTQ-165">
          <mxGeometry relative="1" as="geometry" />
        </mxCell>
        <mxCell id="iwvavYF3wBm5tSGnuBTQ-162" value="next" style="edgeLabel;html=1;align=center;verticalAlign=middle;resizable=0;points=[];" vertex="1" connectable="0" parent="iwvavYF3wBm5tSGnuBTQ-161">
          <mxGeometry x="-0.2337" y="-4" relative="1" as="geometry">
            <mxPoint as="offset" />
          </mxGeometry>
        </mxCell>
        <mxCell id="iwvavYF3wBm5tSGnuBTQ-163" value="1" style="ellipse;whiteSpace=wrap;html=1;aspect=fixed;" vertex="1" parent="1">
          <mxGeometry x="135" y="2500" width="80" height="80" as="geometry" />
        </mxCell>
        <mxCell id="iwvavYF3wBm5tSGnuBTQ-164" style="edgeStyle=orthogonalEdgeStyle;rounded=0;orthogonalLoop=1;jettySize=auto;html=1;entryX=0;entryY=0;entryDx=0;entryDy=0;exitX=1;exitY=0;exitDx=0;exitDy=0;" edge="1" parent="1" source="iwvavYF3wBm5tSGnuBTQ-165" target="iwvavYF3wBm5tSGnuBTQ-167">
          <mxGeometry relative="1" as="geometry">
            <mxPoint x="370" y="2540" as="targetPoint" />
          </mxGeometry>
        </mxCell>
        <mxCell id="iwvavYF3wBm5tSGnuBTQ-165" value="2" style="ellipse;whiteSpace=wrap;html=1;aspect=fixed;fillColor=#1ba1e2;fontColor=#ffffff;strokeColor=#006EAF;" vertex="1" parent="1">
          <mxGeometry x="255" y="2500" width="80" height="80" as="geometry" />
        </mxCell>
        <mxCell id="iwvavYF3wBm5tSGnuBTQ-166" style="edgeStyle=orthogonalEdgeStyle;rounded=0;orthogonalLoop=1;jettySize=auto;html=1;entryX=0;entryY=0;entryDx=0;entryDy=0;exitX=1;exitY=0;exitDx=0;exitDy=0;" edge="1" parent="1" source="iwvavYF3wBm5tSGnuBTQ-167" target="iwvavYF3wBm5tSGnuBTQ-169">
          <mxGeometry relative="1" as="geometry" />
        </mxCell>
        <mxCell id="iwvavYF3wBm5tSGnuBTQ-167" value="4" style="ellipse;whiteSpace=wrap;html=1;aspect=fixed;" vertex="1" parent="1">
          <mxGeometry x="385" y="2500" width="80" height="80" as="geometry" />
        </mxCell>
        <mxCell id="iwvavYF3wBm5tSGnuBTQ-168" style="edgeStyle=orthogonalEdgeStyle;rounded=0;orthogonalLoop=1;jettySize=auto;html=1;entryX=0;entryY=0;entryDx=0;entryDy=0;exitX=1;exitY=0;exitDx=0;exitDy=0;" edge="1" parent="1" source="iwvavYF3wBm5tSGnuBTQ-169" target="iwvavYF3wBm5tSGnuBTQ-171">
          <mxGeometry relative="1" as="geometry" />
        </mxCell>
        <mxCell id="iwvavYF3wBm5tSGnuBTQ-169" value="5" style="ellipse;whiteSpace=wrap;html=1;aspect=fixed;fillColor=#1ba1e2;fontColor=#ffffff;strokeColor=#006EAF;" vertex="1" parent="1">
          <mxGeometry x="505" y="2500" width="80" height="80" as="geometry" />
        </mxCell>
        <mxCell id="iwvavYF3wBm5tSGnuBTQ-170" style="edgeStyle=orthogonalEdgeStyle;rounded=0;orthogonalLoop=1;jettySize=auto;html=1;" edge="1" parent="1" source="iwvavYF3wBm5tSGnuBTQ-171" target="iwvavYF3wBm5tSGnuBTQ-173">
          <mxGeometry relative="1" as="geometry" />
        </mxCell>
        <mxCell id="iwvavYF3wBm5tSGnuBTQ-171" value="6" style="ellipse;whiteSpace=wrap;html=1;aspect=fixed;" vertex="1" parent="1">
          <mxGeometry x="625" y="2500" width="80" height="80" as="geometry" />
        </mxCell>
        <mxCell id="iwvavYF3wBm5tSGnuBTQ-172" value="left" style="rounded=0;whiteSpace=wrap;html=1;" vertex="1" parent="1">
          <mxGeometry x="150" y="2590" width="50" height="50" as="geometry" />
        </mxCell>
        <mxCell id="iwvavYF3wBm5tSGnuBTQ-173" value="None" style="ellipse;whiteSpace=wrap;html=1;aspect=fixed;" vertex="1" parent="1">
          <mxGeometry x="755" y="2500" width="80" height="80" as="geometry" />
        </mxCell>
        <mxCell id="iwvavYF3wBm5tSGnuBTQ-174" style="edgeStyle=orthogonalEdgeStyle;rounded=0;orthogonalLoop=1;jettySize=auto;html=1;exitX=1;exitY=0;exitDx=0;exitDy=0;entryX=0;entryY=0;entryDx=0;entryDy=0;" edge="1" parent="1" source="iwvavYF3wBm5tSGnuBTQ-175" target="iwvavYF3wBm5tSGnuBTQ-163">
          <mxGeometry relative="1" as="geometry" />
        </mxCell>
        <mxCell id="iwvavYF3wBm5tSGnuBTQ-175" value="D" style="ellipse;whiteSpace=wrap;html=1;aspect=fixed;fillColor=#a20025;fontColor=#ffffff;strokeColor=#6F0000;" vertex="1" parent="1">
          <mxGeometry x="5" y="2500" width="80" height="80" as="geometry" />
        </mxCell>
        <mxCell id="iwvavYF3wBm5tSGnuBTQ-176" value="removed" style="rounded=0;whiteSpace=wrap;html=1;" vertex="1" parent="1">
          <mxGeometry x="270" y="2590" width="50" height="50" as="geometry" />
        </mxCell>
        <mxCell id="iwvavYF3wBm5tSGnuBTQ-186" style="edgeStyle=orthogonalEdgeStyle;rounded=0;orthogonalLoop=1;jettySize=auto;html=1;entryX=0.5;entryY=0;entryDx=0;entryDy=0;fillColor=#a0522d;strokeColor=#6D1F00;" edge="1" parent="1" source="iwvavYF3wBm5tSGnuBTQ-177" target="iwvavYF3wBm5tSGnuBTQ-163">
          <mxGeometry relative="1" as="geometry" />
        </mxCell>
        <mxCell id="iwvavYF3wBm5tSGnuBTQ-187" value="prev" style="edgeLabel;html=1;align=center;verticalAlign=middle;resizable=0;points=[];" vertex="1" connectable="0" parent="iwvavYF3wBm5tSGnuBTQ-186">
          <mxGeometry x="-0.5566" y="-2" relative="1" as="geometry">
            <mxPoint as="offset" />
          </mxGeometry>
        </mxCell>
        <mxCell id="iwvavYF3wBm5tSGnuBTQ-177" value="3" style="ellipse;whiteSpace=wrap;html=1;aspect=fixed;fillColor=#a0522d;fontColor=#ffffff;strokeColor=#6D1F00;" vertex="1" parent="1">
          <mxGeometry x="390" y="2390" width="80" height="80" as="geometry" />
        </mxCell>
        <mxCell id="iwvavYF3wBm5tSGnuBTQ-178" value="to_move" style="rounded=0;whiteSpace=wrap;html=1;" vertex="1" parent="1">
          <mxGeometry x="405" y="2330" width="50" height="50" as="geometry" />
        </mxCell>
        <mxCell id="iwvavYF3wBm5tSGnuBTQ-179" value="" style="endArrow=classic;html=1;rounded=0;entryX=1;entryY=1;entryDx=0;entryDy=0;exitX=0;exitY=1;exitDx=0;exitDy=0;" edge="1" parent="1" source="iwvavYF3wBm5tSGnuBTQ-163" target="iwvavYF3wBm5tSGnuBTQ-175">
          <mxGeometry width="50" height="50" relative="1" as="geometry">
            <mxPoint x="315" y="2550" as="sourcePoint" />
            <mxPoint x="365" y="2500" as="targetPoint" />
          </mxGeometry>
        </mxCell>
        <mxCell id="iwvavYF3wBm5tSGnuBTQ-180" value="" style="endArrow=classic;html=1;rounded=0;entryX=1;entryY=1;entryDx=0;entryDy=0;exitX=0;exitY=1;exitDx=0;exitDy=0;" edge="1" parent="1" source="iwvavYF3wBm5tSGnuBTQ-165" target="iwvavYF3wBm5tSGnuBTQ-163">
          <mxGeometry width="50" height="50" relative="1" as="geometry">
            <mxPoint x="315" y="2550" as="sourcePoint" />
            <mxPoint x="365" y="2500" as="targetPoint" />
          </mxGeometry>
        </mxCell>
        <mxCell id="iwvavYF3wBm5tSGnuBTQ-181" value="prev" style="edgeLabel;html=1;align=center;verticalAlign=middle;resizable=0;points=[];" vertex="1" connectable="0" parent="iwvavYF3wBm5tSGnuBTQ-180">
          <mxGeometry x="0.1595" y="1" relative="1" as="geometry">
            <mxPoint as="offset" />
          </mxGeometry>
        </mxCell>
        <mxCell id="iwvavYF3wBm5tSGnuBTQ-182" value="" style="endArrow=classic;html=1;rounded=0;entryX=1;entryY=1;entryDx=0;entryDy=0;exitX=0;exitY=1;exitDx=0;exitDy=0;" edge="1" parent="1" source="iwvavYF3wBm5tSGnuBTQ-167" target="iwvavYF3wBm5tSGnuBTQ-165">
          <mxGeometry width="50" height="50" relative="1" as="geometry">
            <mxPoint x="315" y="2550" as="sourcePoint" />
            <mxPoint x="365" y="2500" as="targetPoint" />
          </mxGeometry>
        </mxCell>
        <mxCell id="iwvavYF3wBm5tSGnuBTQ-183" value="" style="endArrow=classic;html=1;rounded=0;entryX=1;entryY=1;entryDx=0;entryDy=0;exitX=0;exitY=1;exitDx=0;exitDy=0;" edge="1" parent="1" source="iwvavYF3wBm5tSGnuBTQ-169" target="iwvavYF3wBm5tSGnuBTQ-167">
          <mxGeometry width="50" height="50" relative="1" as="geometry">
            <mxPoint x="315" y="2550" as="sourcePoint" />
            <mxPoint x="365" y="2500" as="targetPoint" />
          </mxGeometry>
        </mxCell>
        <mxCell id="iwvavYF3wBm5tSGnuBTQ-184" value="" style="endArrow=classic;html=1;rounded=0;entryX=1;entryY=1;entryDx=0;entryDy=0;exitX=0;exitY=1;exitDx=0;exitDy=0;" edge="1" parent="1" source="iwvavYF3wBm5tSGnuBTQ-171" target="iwvavYF3wBm5tSGnuBTQ-169">
          <mxGeometry width="50" height="50" relative="1" as="geometry">
            <mxPoint x="565" y="2540" as="sourcePoint" />
            <mxPoint x="615" y="2490" as="targetPoint" />
          </mxGeometry>
        </mxCell>
        <mxCell id="iwvavYF3wBm5tSGnuBTQ-185" value="to_move.prev = left" style="rounded=0;whiteSpace=wrap;html=1;" vertex="1" parent="1">
          <mxGeometry x="15" y="2400" width="110" height="50" as="geometry" />
        </mxCell>
      </root>
    </mxGraphModel>
  </diagram>
</mxfile>
